<svg id="svg" version="1.1" xmlns="http://www.w3.org/2000/svg" xmlns:xlink="http://www.w3.org/1999/xlink" width="400" height="399.8028585510104" viewBox="0, 0, 400,399.8028585510104"><g id="svgg"><path id="path0" d="M66.673 50.918 C 66.381 51.220,64.766 52.738,63.085 54.292 C 34.646 80.592,14.032 116.337,5.248 154.585 C 3.912 160.402,2.719 166.710,2.465 169.295 L 2.363 170.330 9.045 170.330 L 15.727 170.330 15.863 169.394 C 16.250 166.730,18.092 158.090,19.204 153.715 C 29.234 114.264,51.891 79.352,84.278 53.442 C 85.688 52.314,86.870 51.317,86.907 51.226 C 86.943 51.134,87.088 51.060,87.230 51.060 C 87.372 51.060,87.539 50.928,87.601 50.767 C 87.699 50.512,86.424 50.469,77.459 50.422 L 67.206 50.370 66.673 50.918 M312.173 50.665 C 312.240 50.774,312.370 50.862,312.461 50.862 C 312.551 50.862,312.879 51.077,313.188 51.339 C 313.498 51.600,315.436 53.189,317.496 54.870 C 351.467 82.577,374.372 120.426,383.016 163.135 C 383.769 166.855,383.878 167.426,384.137 169.000 C 384.377 170.456,383.724 170.330,391.065 170.330 L 397.678 170.330 397.553 169.197 C 397.139 165.455,395.617 157.734,394.065 151.503 C 386.800 122.329,373.252 95.522,354.063 72.353 C 348.110 65.164,338.431 55.181,333.277 50.912 L 332.741 50.468 322.396 50.468 C 315.550 50.468,312.093 50.535,312.173 50.665 M66.230 330.062 L 66.911 330.803 58.049 330.827 C 53.175 330.840,49.114 330.837,49.024 330.822 C 48.935 330.806,48.919 330.886,48.989 330.999 C 49.058 331.112,49.198 331.153,49.299 331.091 C 49.400 331.028,49.483 331.083,49.483 331.212 C 49.483 331.341,49.815 331.763,50.222 332.149 C 50.628 332.535,50.828 332.775,50.665 332.682 C 50.503 332.589,50.591 332.728,50.862 332.991 C 51.134 333.253,51.621 333.782,51.947 334.165 C 52.272 334.549,52.461 334.748,52.366 334.607 C 51.862 333.859,52.511 334.502,53.131 335.366 C 53.532 335.924,55.426 337.974,57.339 339.922 C 101.375 384.754,163.277 406.120,225.921 398.109 C 266.643 392.902,304.711 375.139,335.338 347.054 C 338.803 343.876,346.395 336.232,347.267 335.042 C 347.585 334.608,348.161 333.943,348.548 333.563 C 348.934 333.184,349.406 332.652,349.597 332.380 C 349.788 332.109,349.888 332.021,349.820 332.183 C 349.675 332.526,350.432 331.662,350.729 331.145 C 350.920 330.813,350.481 330.797,341.887 330.807 L 332.844 330.818 331.873 331.846 L 330.902 332.873 331.937 331.895 C 332.506 331.357,332.972 330.974,332.972 331.045 C 332.972 331.115,331.663 332.348,330.064 333.784 C 328.465 335.220,326.933 336.623,326.660 336.901 C 324.569 339.033,316.820 345.448,311.594 349.374 C 270.247 380.438,217.424 392.752,165.929 383.331 C 129.096 376.593,94.137 358.094,67.422 331.206 C 66.392 330.170,65.856 329.655,66.230 330.062 " stroke="none" fill="#bbbbb5" fill-rule="evenodd"></path><path id="path1" d="M384.321 170.344 C 386.509 182.066,387.190 201.999,385.896 216.461 C 382.011 259.887,363.008 300.656,332.283 331.484 C 330.209 333.564,329.744 334.092,330.925 333.024 C 331.913 332.131,332.833 331.266,332.969 331.102 C 333.307 330.695,351.016 330.643,350.810 331.050 C 350.742 331.185,350.829 331.119,351.004 330.902 C 351.179 330.685,351.518 330.286,351.757 330.015 C 383.820 293.662,401.790 242.364,399.821 192.804 C 399.496 184.626,397.883 167.686,397.657 170.084 C 397.639 170.276,396.173 170.330,391.046 170.330 C 385.970 170.330,384.432 170.274,384.343 170.084 C 384.279 169.948,384.269 170.065,384.321 170.344 M2.175 170.724 C 2.178 170.996,2.003 172.435,1.786 173.922 C -3.675 211.340,3.501 254.023,21.207 289.437 C 27.889 302.802,40.796 322.297,47.299 328.849 C 47.613 329.164,48.812 330.569,49.389 331.296 C 49.694 331.681,49.696 331.680,49.488 331.249 L 49.274 330.807 58.027 330.756 L 66.780 330.705 63.931 327.551 C 59.787 322.963,56.690 319.359,54.148 316.168 C 21.479 275.147,7.594 222.716,15.647 170.779 L 15.715 170.340 8.942 170.286 L 2.170 170.232 2.175 170.724 M68.014 331.888 C 68.603 332.484,69.129 332.972,69.183 332.972 C 69.237 332.972,68.800 332.484,68.211 331.888 C 67.622 331.291,67.096 330.803,67.042 330.803 C 66.987 330.803,67.425 331.291,68.014 331.888 M347.758 334.352 C 347.526 334.677,347.381 334.943,347.435 334.943 C 347.489 334.943,347.723 334.677,347.955 334.352 C 348.186 334.027,348.331 333.760,348.277 333.760 C 348.223 333.760,347.989 334.027,347.758 334.352 M52.637 334.943 C 52.868 335.269,53.102 335.535,53.156 335.535 C 53.211 335.535,53.066 335.269,52.834 334.943 C 52.602 334.618,52.368 334.352,52.314 334.352 C 52.260 334.352,52.405 334.618,52.637 334.943 " stroke="none" fill="#6ec6bc" fill-rule="evenodd"></path><path id="path2" d="M188.763 0.207 C 149.354 2.674,113.489 15.478,82.273 38.223 C 76.956 42.097,67.422 49.851,67.422 50.300 C 67.422 50.393,71.996 50.468,77.587 50.468 C 85.220 50.468,87.716 50.525,87.611 50.696 C 87.413 51.016,87.622 50.877,90.784 48.590 C 155.765 1.593,244.771 1.505,308.981 48.375 C 310.262 49.309,311.383 50.074,311.474 50.074 C 311.564 50.074,311.681 50.185,311.733 50.320 C 311.807 50.514,314.074 50.556,322.346 50.514 L 332.865 50.461 331.883 49.547 C 325.993 44.058,314.680 35.661,305.439 29.918 C 278.135 12.951,248.551 3.281,215.377 0.478 C 211.010 0.109,193.224 -0.072,188.763 0.207 M332.972 50.643 C 332.972 50.739,333.216 50.973,333.514 51.164 L 334.056 51.511 333.578 50.989 C 333.061 50.426,332.972 50.375,332.972 50.643 M66.027 51.384 L 65.550 51.905 66.092 51.558 C 66.390 51.367,66.634 51.133,66.634 51.037 C 66.634 50.769,66.544 50.820,66.027 51.384 M335.140 52.501 C 335.140 52.535,335.429 52.824,335.781 53.142 L 336.422 53.721 335.843 53.080 C 335.303 52.483,335.140 52.349,335.140 52.501 M63.469 53.770 L 62.790 54.510 63.529 53.830 C 63.935 53.457,64.268 53.124,64.268 53.091 C 64.268 52.940,64.101 53.082,63.469 53.770 M338.689 55.890 C 339.057 56.269,339.402 56.580,339.456 56.580 C 339.511 56.580,339.254 56.269,338.886 55.890 C 338.518 55.510,338.173 55.200,338.119 55.200 C 338.065 55.200,338.321 55.510,338.689 55.890 M58.547 58.502 L 56.678 60.424 58.600 58.555 C 60.386 56.819,60.612 56.580,60.469 56.580 C 60.440 56.580,59.575 57.445,58.547 58.502 M343.815 61.015 C 344.183 61.395,344.528 61.705,344.582 61.705 C 344.636 61.705,344.380 61.395,344.012 61.015 C 343.644 60.636,343.299 60.325,343.244 60.325 C 343.190 60.325,343.447 60.636,343.815 61.015 M70.172 65.796 L 69.492 66.535 70.232 65.856 C 70.638 65.482,70.971 65.150,70.971 65.117 C 70.971 64.966,70.804 65.108,70.172 65.796 " stroke="none" fill="#e46c6c" fill-rule="evenodd"></path><path id="path3" d="M130.806 67.952 C 129.722 67.994,128.751 68.114,128.647 68.219 C 128.543 68.323,127.904 68.408,127.227 68.408 C 126.550 68.408,125.942 68.497,125.875 68.605 C 125.808 68.714,125.231 68.802,124.593 68.802 C 123.956 68.802,123.379 68.891,123.312 69.000 C 123.245 69.108,122.796 69.197,122.315 69.197 C 121.833 69.197,121.439 69.285,121.439 69.394 C 121.439 69.502,121.058 69.591,120.591 69.591 C 120.125 69.591,119.659 69.671,119.556 69.768 C 119.453 69.865,119.014 69.995,118.581 70.056 C 116.910 70.292,116.306 70.429,116.201 70.598 C 116.142 70.695,115.793 70.774,115.426 70.774 C 115.060 70.774,114.705 70.862,114.638 70.971 C 114.571 71.079,114.328 71.168,114.098 71.168 C 113.702 71.168,112.750 71.430,111.582 71.860 C 111.528 71.880,111.104 71.966,110.641 72.051 C 110.178 72.136,109.751 72.283,109.693 72.377 C 109.635 72.471,109.376 72.548,109.118 72.548 C 108.860 72.548,108.593 72.637,108.526 72.745 C 108.459 72.854,108.193 72.942,107.935 72.942 C 107.677 72.942,107.411 73.031,107.344 73.139 C 107.277 73.248,107.005 73.337,106.740 73.337 C 106.476 73.337,106.259 73.425,106.259 73.534 C 106.259 73.642,106.037 73.731,105.766 73.731 C 105.495 73.731,105.274 73.820,105.274 73.928 C 105.274 74.036,105.052 74.125,104.781 74.125 C 104.510 74.125,104.288 74.214,104.288 74.322 C 104.288 74.431,104.022 74.519,103.696 74.519 C 103.371 74.519,103.105 74.608,103.105 74.717 C 103.105 74.825,102.928 74.914,102.711 74.914 C 102.494 74.914,102.316 75.002,102.316 75.111 C 102.316 75.219,102.095 75.308,101.824 75.308 C 101.552 75.308,101.331 75.397,101.331 75.505 C 101.331 75.614,101.104 75.702,100.826 75.702 C 100.540 75.702,100.374 75.788,100.444 75.899 C 100.513 76.011,100.347 76.097,100.061 76.097 C 99.783 76.097,99.556 76.185,99.556 76.294 C 99.556 76.402,99.379 76.491,99.162 76.491 C 98.945 76.491,98.768 76.580,98.768 76.688 C 98.768 76.796,98.541 76.885,98.263 76.885 C 97.977 76.885,97.812 76.970,97.881 77.082 C 97.950 77.195,97.780 77.279,97.486 77.279 C 97.193 77.279,97.023 77.364,97.092 77.477 C 97.162 77.589,96.992 77.674,96.698 77.674 C 96.404 77.674,96.234 77.759,96.304 77.871 C 96.371 77.979,96.243 78.068,96.020 78.068 C 95.796 78.068,95.614 78.157,95.614 78.265 C 95.614 78.374,95.436 78.462,95.219 78.462 C 95.002 78.462,94.825 78.551,94.825 78.659 C 94.825 78.768,94.648 78.857,94.431 78.857 C 94.214 78.857,94.036 78.945,94.036 79.054 C 94.036 79.162,93.859 79.251,93.642 79.251 C 93.425 79.251,93.248 79.340,93.248 79.448 C 93.248 79.556,93.070 79.645,92.854 79.645 C 92.637 79.645,92.459 79.734,92.459 79.842 C 92.459 79.951,92.326 80.039,92.164 80.039 C 92.001 80.039,91.868 80.128,91.868 80.237 C 91.868 80.345,91.735 80.434,91.572 80.434 C 91.410 80.434,91.276 80.522,91.276 80.631 C 91.276 80.739,91.099 80.828,90.882 80.828 C 90.665 80.828,90.488 80.917,90.488 81.025 C 90.488 81.134,90.355 81.222,90.192 81.222 C 90.030 81.222,89.897 81.311,89.897 81.419 C 89.897 81.528,89.763 81.617,89.601 81.617 C 89.438 81.617,89.305 81.705,89.305 81.814 C 89.305 81.922,89.128 82.011,88.911 82.011 C 88.694 82.011,88.517 82.100,88.517 82.208 C 88.517 82.316,88.400 82.405,88.258 82.405 C 88.116 82.405,87.827 82.560,87.617 82.750 C 87.407 82.940,86.991 83.221,86.693 83.375 C 86.395 83.529,86.151 83.728,86.151 83.818 C 86.151 83.909,86.034 83.982,85.892 83.982 C 85.750 83.982,85.462 84.138,85.252 84.327 C 85.041 84.517,84.625 84.798,84.327 84.952 C 84.029 85.106,83.785 85.305,83.785 85.396 C 83.785 85.486,83.699 85.559,83.593 85.559 C 83.130 85.559,75.936 91.207,74.490 92.706 C 74.202 93.004,73.917 93.248,73.856 93.248 C 73.492 93.248,66.634 100.076,66.634 100.438 C 66.634 100.505,66.434 100.763,66.190 101.010 C 63.482 103.757,63.096 104.523,64.515 104.338 C 64.975 104.278,65.382 104.153,65.418 104.061 C 65.454 103.969,65.782 103.894,66.146 103.894 C 66.510 103.894,66.863 103.805,66.930 103.696 C 66.997 103.588,67.312 103.499,67.631 103.499 C 67.950 103.499,68.211 103.411,68.211 103.302 C 68.211 103.194,68.521 103.105,68.901 103.105 C 69.280 103.105,69.591 103.016,69.591 102.908 C 69.591 102.799,69.901 102.711,70.281 102.711 C 70.660 102.711,70.971 102.622,70.971 102.514 C 70.971 102.405,71.232 102.316,71.551 102.316 C 71.870 102.316,72.185 102.228,72.252 102.119 C 72.319 102.011,72.630 101.922,72.942 101.922 C 73.255 101.922,73.565 101.833,73.632 101.725 C 73.699 101.617,74.010 101.528,74.322 101.528 C 74.635 101.528,74.945 101.439,75.012 101.331 C 75.079 101.222,75.390 101.134,75.702 101.134 C 76.015 101.134,76.325 101.045,76.392 100.936 C 76.459 100.828,76.775 100.739,77.094 100.739 C 77.413 100.739,77.674 100.651,77.674 100.542 C 77.674 100.434,78.112 100.345,78.648 100.345 C 79.184 100.345,79.677 100.256,79.744 100.148 C 79.811 100.039,80.432 99.951,81.124 99.951 C 81.816 99.951,82.437 99.862,82.504 99.754 C 82.571 99.645,83.179 99.556,83.856 99.556 C 84.533 99.556,85.171 99.475,85.274 99.375 C 85.377 99.276,86.037 99.144,86.742 99.083 C 87.447 99.022,88.600 98.922,89.305 98.862 C 90.010 98.801,90.764 98.670,90.981 98.571 C 91.198 98.471,91.907 98.344,92.558 98.287 C 95.363 98.043,96.102 97.920,96.678 97.600 C 97.014 97.414,97.777 97.005,98.374 96.693 C 98.970 96.381,99.613 95.997,99.803 95.839 C 99.993 95.681,100.148 95.624,100.148 95.712 C 100.148 95.800,100.303 95.731,100.493 95.560 C 100.683 95.388,100.902 95.233,100.981 95.216 C 101.652 95.070,101.922 94.951,101.922 94.802 C 101.922 94.706,102.055 94.628,102.218 94.628 C 102.380 94.628,102.514 94.539,102.514 94.431 C 102.514 94.322,102.691 94.234,102.908 94.234 C 103.125 94.234,103.302 94.145,103.302 94.036 C 103.302 93.928,103.480 93.839,103.696 93.839 C 103.913 93.839,104.091 93.751,104.091 93.642 C 104.091 93.534,104.229 93.445,104.398 93.445 C 104.567 93.445,104.651 93.534,104.584 93.642 C 104.511 93.760,104.746 93.839,105.163 93.839 C 105.549 93.839,105.865 93.928,105.865 94.036 C 105.865 94.145,106.175 94.234,106.555 94.234 C 106.934 94.234,107.245 94.322,107.245 94.431 C 107.245 94.539,107.555 94.628,107.935 94.628 C 108.314 94.628,108.625 94.717,108.625 94.825 C 108.625 94.933,108.935 95.022,109.315 95.022 C 109.694 95.022,110.005 95.111,110.005 95.219 C 110.005 95.328,110.315 95.416,110.695 95.416 C 111.074 95.416,111.385 95.505,111.385 95.614 C 111.385 95.722,111.678 95.811,112.035 95.811 C 112.393 95.811,112.782 95.907,112.900 96.024 C 113.038 96.163,113.656 96.195,114.664 96.116 C 116.289 95.989,121.632 95.693,125.704 95.505 C 128.209 95.389,129.128 94.969,129.128 93.940 C 129.128 93.776,129.216 93.642,129.325 93.642 C 129.433 93.642,129.522 93.509,129.522 93.346 C 129.522 93.184,129.611 93.051,129.719 93.051 C 129.828 93.051,129.916 92.918,129.916 92.755 C 129.916 92.592,130.005 92.459,130.113 92.459 C 130.222 92.459,130.310 92.326,130.310 92.164 C 130.310 92.001,130.399 91.868,130.508 91.868 C 130.616 91.868,130.705 91.735,130.705 91.572 C 130.705 91.410,130.793 91.276,130.902 91.276 C 131.010 91.276,131.099 91.143,131.099 90.981 C 131.099 90.818,131.188 90.685,131.296 90.685 C 131.405 90.685,131.493 90.552,131.493 90.389 C 131.493 90.227,131.582 90.094,131.690 90.094 C 131.799 90.094,131.888 89.911,131.888 89.688 C 131.888 89.464,131.976 89.337,132.085 89.404 C 132.193 89.471,132.282 89.343,132.282 89.120 C 132.282 88.896,132.371 88.714,132.479 88.714 C 132.587 88.714,132.676 88.581,132.676 88.418 C 132.676 88.255,132.765 88.122,132.873 88.122 C 132.982 88.122,133.070 87.989,133.070 87.827 C 133.070 87.600,133.322 87.531,134.155 87.531 C 134.751 87.531,135.239 87.620,135.239 87.728 C 135.239 87.837,135.765 87.925,136.422 87.925 C 137.079 87.925,137.605 88.013,137.605 88.122 C 137.605 88.232,138.130 88.319,138.788 88.319 C 139.445 88.319,139.970 88.407,139.970 88.517 C 139.970 88.625,140.237 88.714,140.562 88.714 C 140.887 88.714,141.153 88.625,141.153 88.517 C 141.153 88.398,141.975 88.319,143.223 88.319 C 144.472 88.319,145.293 88.241,145.293 88.122 C 145.293 88.003,146.115 87.925,147.363 87.925 C 148.612 87.925,149.433 87.847,149.433 87.728 C 149.433 87.609,150.255 87.531,151.503 87.531 C 152.752 87.531,153.573 87.453,153.573 87.334 C 153.573 87.215,154.395 87.137,155.643 87.137 C 156.892 87.137,157.713 87.058,157.713 86.939 C 157.713 86.831,157.895 86.742,158.118 86.742 C 158.551 86.742,161.853 83.522,161.853 83.100 C 161.853 82.626,167.471 78.374,168.303 78.218 C 168.388 78.202,168.629 78.028,168.840 77.833 C 169.050 77.637,169.338 77.477,169.480 77.477 C 169.622 77.477,169.739 77.388,169.739 77.279 C 169.739 77.168,170.297 77.082,171.020 77.082 C 171.743 77.082,172.302 77.168,172.302 77.279 C 172.302 77.391,172.860 77.477,173.583 77.477 C 174.306 77.477,174.864 77.563,174.864 77.674 C 174.864 77.785,175.423 77.871,176.146 77.871 C 176.869 77.871,177.427 77.957,177.427 78.068 C 177.427 78.188,178.347 78.265,179.793 78.265 C 181.137 78.265,182.159 78.185,182.159 78.080 C 182.159 77.978,182.491 77.867,182.896 77.833 C 183.749 77.763,184.076 77.134,183.359 76.947 C 183.132 76.888,182.947 76.761,182.947 76.665 C 182.947 76.569,182.720 76.491,182.443 76.491 C 182.157 76.491,181.991 76.406,182.060 76.294 C 182.129 76.182,181.964 76.097,181.677 76.097 C 181.400 76.097,181.173 76.008,181.173 75.899 C 181.173 75.791,180.946 75.702,180.669 75.702 C 180.382 75.702,180.217 75.617,180.286 75.505 C 180.355 75.393,180.189 75.308,179.903 75.308 C 179.626 75.308,179.399 75.219,179.399 75.111 C 179.399 75.002,179.177 74.914,178.906 74.914 C 178.635 74.914,178.413 74.825,178.413 74.717 C 178.413 74.608,178.191 74.519,177.920 74.519 C 177.649 74.519,177.427 74.431,177.427 74.322 C 177.427 74.214,177.206 74.125,176.934 74.125 C 176.663 74.125,176.442 74.036,176.442 73.928 C 176.442 73.820,176.175 73.731,175.850 73.731 C 175.525 73.731,175.259 73.642,175.259 73.534 C 175.259 73.425,175.037 73.337,174.766 73.337 C 174.495 73.337,174.273 73.248,174.273 73.139 C 174.273 73.031,174.056 72.942,173.792 72.942 C 173.527 72.942,173.256 72.854,173.189 72.745 C 173.122 72.637,172.849 72.548,172.583 72.548 C 172.317 72.548,171.945 72.468,171.757 72.369 C 171.569 72.271,170.838 72.040,170.133 71.855 C 169.428 71.670,168.674 71.447,168.457 71.358 C 168.241 71.270,167.797 71.143,167.472 71.076 C 167.146 71.008,166.525 70.862,166.092 70.751 C 165.658 70.639,165.014 70.500,164.661 70.442 C 164.307 70.384,163.969 70.257,163.910 70.161 C 163.850 70.064,163.457 69.985,163.036 69.985 C 162.615 69.985,162.216 69.897,162.149 69.788 C 162.082 69.680,161.638 69.591,161.163 69.591 C 160.688 69.591,160.244 69.502,160.177 69.394 C 160.110 69.285,159.667 69.197,159.192 69.197 C 158.717 69.197,158.273 69.108,158.206 69.000 C 158.139 68.891,157.557 68.802,156.913 68.802 C 156.264 68.802,155.742 68.715,155.742 68.605 C 155.742 68.495,155.196 68.408,154.500 68.408 C 153.802 68.408,153.155 68.305,153.023 68.173 C 152.789 67.939,135.504 67.767,130.806 67.952 M155.939 72.942 C 155.939 73.051,156.072 73.139,156.235 73.139 C 156.397 73.139,156.530 73.228,156.530 73.337 C 156.530 73.445,156.663 73.534,156.826 73.534 C 156.989 73.534,157.122 73.622,157.122 73.731 C 157.122 73.839,157.299 73.928,157.516 73.928 C 157.733 73.928,157.910 74.017,157.910 74.125 C 157.910 74.234,158.093 74.322,158.316 74.322 C 158.539 74.322,158.667 74.411,158.600 74.519 C 158.533 74.628,158.666 74.717,158.896 74.717 C 159.126 74.717,159.259 74.805,159.192 74.914 C 159.125 75.022,159.253 75.111,159.476 75.111 C 159.699 75.111,159.882 75.200,159.882 75.308 C 159.882 75.416,160.021 75.505,160.192 75.505 C 160.712 75.505,161.054 75.964,160.748 76.250 C 160.606 76.383,160.397 76.491,160.284 76.491 C 160.171 76.491,160.079 76.580,160.079 76.688 C 160.079 76.796,159.965 76.885,159.827 76.885 C 159.688 76.885,159.447 77.063,159.290 77.279 C 159.134 77.496,158.893 77.674,158.754 77.674 C 158.615 77.674,158.502 77.762,158.502 77.871 C 158.502 77.979,158.404 78.068,158.285 78.068 C 158.166 78.068,157.820 78.334,157.516 78.659 C 157.212 78.985,156.879 79.251,156.776 79.251 C 156.673 79.251,156.310 79.517,155.970 79.842 C 155.630 80.168,155.262 80.434,155.152 80.434 C 155.043 80.434,154.953 80.522,154.953 80.631 C 154.953 80.739,154.840 80.828,154.701 80.828 C 154.562 80.828,154.321 81.005,154.165 81.222 C 154.008 81.439,153.805 81.617,153.713 81.617 C 153.620 81.617,153.428 81.727,153.285 81.863 C 152.409 82.695,152.156 82.799,151.020 82.799 C 150.377 82.799,149.796 82.888,149.729 82.997 C 149.662 83.105,148.774 83.194,147.746 83.194 C 146.637 83.194,145.885 83.273,145.885 83.391 C 145.885 83.789,143.342 83.622,142.882 83.194 C 142.649 82.977,142.343 82.799,142.200 82.799 C 142.058 82.799,141.942 82.711,141.942 82.602 C 141.942 82.494,141.809 82.405,141.646 82.405 C 141.483 82.405,141.350 82.316,141.350 82.208 C 141.350 82.100,141.217 82.011,141.055 82.011 C 140.892 82.011,140.759 81.932,140.759 81.837 C 140.759 81.741,140.559 81.610,140.315 81.545 C 139.886 81.431,139.891 81.416,140.478 81.078 C 141.746 80.348,143.030 79.561,143.125 79.456 C 143.179 79.395,143.578 79.169,144.012 78.953 C 144.446 78.737,144.830 78.494,144.866 78.413 C 144.902 78.332,145.057 78.265,145.211 78.265 C 145.365 78.265,145.490 78.176,145.490 78.068 C 145.490 77.960,145.668 77.871,145.885 77.871 C 146.102 77.871,146.279 77.782,146.279 77.674 C 146.279 77.565,146.456 77.477,146.673 77.477 C 146.890 77.477,147.068 77.388,147.068 77.279 C 147.068 77.171,147.201 77.082,147.363 77.082 C 147.526 77.082,147.659 76.994,147.659 76.885 C 147.659 76.777,147.836 76.688,148.053 76.688 C 148.270 76.688,148.448 76.599,148.448 76.491 C 148.448 76.382,148.625 76.294,148.842 76.294 C 149.059 76.294,149.236 76.205,149.236 76.097 C 149.236 75.988,149.369 75.899,149.532 75.899 C 149.694 75.899,149.828 75.811,149.828 75.702 C 149.828 75.594,150.010 75.505,150.233 75.505 C 150.457 75.505,150.585 75.416,150.517 75.308 C 150.450 75.200,150.578 75.111,150.802 75.111 C 151.025 75.111,151.207 75.022,151.207 74.914 C 151.207 74.805,151.385 74.717,151.602 74.717 C 151.819 74.717,151.996 74.628,151.996 74.519 C 151.996 74.411,152.173 74.322,152.390 74.322 C 152.607 74.322,152.785 74.234,152.785 74.125 C 152.785 74.017,152.918 73.928,153.080 73.928 C 153.243 73.928,153.376 73.839,153.376 73.731 C 153.376 73.622,153.559 73.534,153.782 73.534 C 154.005 73.534,154.133 73.445,154.066 73.337 C 153.999 73.228,154.127 73.139,154.350 73.139 C 154.573 73.139,154.756 73.051,154.756 72.942 C 154.756 72.834,155.022 72.745,155.347 72.745 C 155.673 72.745,155.939 72.834,155.939 72.942 M116.215 79.564 C 116.432 79.644,116.654 79.720,116.708 79.733 C 117.114 79.831,118.815 80.531,118.965 80.663 C 119.224 80.891,120.010 80.870,120.158 80.631 C 120.225 80.522,120.442 80.434,120.640 80.434 C 121.056 80.434,122.953 79.891,123.457 79.627 C 123.645 79.529,123.960 79.448,124.157 79.448 C 124.354 79.448,124.617 79.345,124.743 79.220 C 125.013 78.950,125.579 79.321,125.579 79.768 C 125.579 79.917,125.657 80.039,125.753 80.039 C 125.849 80.039,125.977 80.195,126.037 80.384 C 126.144 80.722,126.764 81.816,126.959 82.011 C 127.080 82.132,127.945 83.791,127.945 83.902 C 127.945 83.946,127.728 83.982,127.464 83.982 C 127.199 83.982,126.928 84.071,126.861 84.179 C 126.794 84.288,126.439 84.377,126.072 84.377 C 125.705 84.377,125.350 84.465,125.283 84.574 C 125.216 84.682,124.906 84.771,124.593 84.771 C 124.281 84.771,123.970 84.860,123.903 84.968 C 123.836 85.076,123.482 85.165,123.115 85.165 C 122.748 85.165,122.393 85.254,122.326 85.362 C 122.259 85.471,121.949 85.559,121.636 85.559 C 121.324 85.559,121.013 85.648,120.946 85.757 C 120.879 85.865,120.524 85.954,120.158 85.954 C 119.791 85.954,119.436 86.042,119.369 86.151 C 119.302 86.259,118.942 86.348,118.569 86.348 C 118.196 86.348,117.891 86.437,117.891 86.545 C 117.891 86.654,117.585 86.742,117.212 86.742 C 116.839 86.742,116.479 86.831,116.412 86.939 C 116.126 87.402,113.862 86.853,113.159 86.151 C 113.105 86.097,112.861 85.941,112.617 85.806 C 112.373 85.670,111.974 85.448,111.730 85.313 C 111.486 85.177,111.242 85.022,111.188 84.968 C 110.993 84.773,109.899 84.153,109.561 84.046 C 109.159 83.918,109.097 83.588,109.475 83.588 C 109.617 83.588,109.924 83.411,110.157 83.194 C 110.389 82.977,110.650 82.798,110.736 82.797 C 110.822 82.795,111.142 82.596,111.448 82.353 C 112.112 81.827,113.252 80.950,114.328 80.138 C 114.759 79.813,115.116 79.435,115.121 79.298 C 115.128 79.124,115.233 79.105,115.476 79.235 C 115.665 79.336,115.998 79.485,116.215 79.564 M162.553 87.777 C 162.512 87.913,162.429 89.011,162.369 90.217 L 162.259 92.410 166.071 96.131 C 168.167 98.178,170.335 100.251,170.888 100.739 C 171.442 101.227,171.897 101.728,171.901 101.853 C 171.904 101.977,172.329 102.516,172.844 103.049 C 173.359 103.582,174.085 104.411,174.459 104.892 C 174.832 105.373,175.288 105.895,175.472 106.052 C 175.825 106.353,175.248 106.851,174.546 106.851 C 174.396 106.851,174.273 106.939,174.273 107.048 C 174.273 107.156,174.096 107.245,173.879 107.245 C 173.662 107.245,173.484 107.334,173.484 107.442 C 173.484 107.551,173.307 107.639,173.090 107.639 C 172.873 107.639,172.696 107.728,172.696 107.836 C 172.696 107.945,172.563 108.034,172.400 108.034 C 172.238 108.034,172.104 108.122,172.104 108.231 C 172.104 108.339,171.617 108.428,171.020 108.428 C 170.424 108.428,169.936 108.339,169.936 108.231 C 169.936 108.122,169.620 108.034,169.234 108.034 C 168.817 108.034,168.582 107.954,168.655 107.836 C 168.727 107.719,168.492 107.639,168.075 107.639 C 167.689 107.639,167.373 107.551,167.373 107.442 C 167.373 107.334,167.151 107.245,166.880 107.245 C 166.609 107.245,166.387 107.156,166.387 107.048 C 166.387 106.939,166.166 106.851,165.895 106.851 C 165.623 106.851,165.402 106.762,165.402 106.654 C 165.402 106.545,165.180 106.456,164.909 106.456 C 164.638 106.456,164.416 106.368,164.416 106.259 C 164.416 106.151,164.244 106.062,164.033 106.062 C 163.823 106.062,163.603 105.985,163.545 105.890 C 163.486 105.796,163.148 105.651,162.794 105.567 C 162.439 105.484,162.104 105.404,162.050 105.391 C 161.528 105.260,161.459 104.922,161.459 102.502 C 161.459 100.366,161.411 99.951,161.163 99.951 C 161.000 99.951,160.867 99.862,160.867 99.754 C 160.867 99.645,160.646 99.556,160.375 99.556 C 160.103 99.556,159.882 99.468,159.882 99.359 C 159.882 99.251,159.660 99.162,159.389 99.162 C 159.118 99.162,158.896 99.073,158.896 98.965 C 158.896 98.857,158.674 98.768,158.403 98.768 C 158.132 98.768,157.910 98.679,157.910 98.571 C 157.910 98.462,157.738 98.374,157.528 98.374 C 157.317 98.374,157.090 98.285,157.023 98.176 C 156.956 98.068,156.685 97.979,156.420 97.979 C 156.155 97.979,155.939 97.891,155.939 97.782 C 155.939 97.674,155.761 97.585,155.545 97.585 C 155.328 97.585,155.150 97.496,155.150 97.388 C 155.150 97.279,154.929 97.191,154.657 97.191 C 154.386 97.191,154.165 97.102,154.165 96.994 C 154.165 96.885,153.854 96.796,153.475 96.796 C 152.916 96.796,152.785 96.872,152.785 97.191 C 152.785 97.408,152.696 97.585,152.587 97.585 C 152.479 97.585,152.390 97.984,152.390 98.472 C 152.390 98.960,152.302 99.359,152.193 99.359 C 152.085 99.359,151.996 99.714,151.996 100.148 C 151.996 100.582,151.907 100.936,151.799 100.936 C 151.690 100.936,151.602 101.336,151.602 101.824 C 151.602 102.311,151.513 102.711,151.405 102.711 C 151.296 102.711,151.207 103.115,151.207 103.609 C 151.207 104.158,151.131 104.461,151.010 104.386 C 150.890 104.312,150.813 104.614,150.813 105.163 C 150.813 105.658,150.724 106.062,150.616 106.062 C 150.508 106.062,150.419 106.461,150.419 106.949 C 150.419 107.466,150.328 107.836,150.201 107.836 C 150.081 107.836,150.034 107.969,150.096 108.132 C 150.183 108.360,150.052 108.428,149.526 108.428 C 149.150 108.428,148.842 108.517,148.842 108.625 C 148.842 108.733,148.443 108.822,147.955 108.822 C 147.467 108.822,147.068 108.911,147.068 109.019 C 147.068 109.128,146.663 109.216,146.169 109.216 C 145.620 109.216,145.317 109.293,145.392 109.414 C 145.467 109.535,145.127 109.611,144.505 109.611 C 143.882 109.611,143.542 109.686,143.618 109.808 C 143.692 109.928,143.390 110.005,142.841 110.005 L 141.942 110.005 141.942 110.979 C 141.942 111.515,142.031 112.008,142.139 112.075 C 142.247 112.142,142.336 112.852,142.336 113.652 C 142.336 114.452,142.425 115.162,142.533 115.229 C 142.642 115.296,142.730 115.834,142.730 116.424 L 142.730 117.496 143.409 117.496 C 143.782 117.496,144.142 117.585,144.209 117.693 C 144.276 117.802,144.720 117.891,145.195 117.891 C 145.670 117.891,146.113 117.979,146.180 118.088 C 146.247 118.196,146.741 118.285,147.276 118.285 C 147.812 118.285,148.250 118.374,148.250 118.482 C 148.250 118.590,148.694 118.679,149.236 118.679 C 149.778 118.679,150.222 118.768,150.222 118.876 C 150.222 118.985,150.660 119.073,151.196 119.073 C 151.732 119.073,152.225 119.162,152.292 119.271 C 152.359 119.379,152.749 119.468,153.159 119.468 C 154.045 119.468,154.362 118.975,154.362 117.597 C 154.362 117.121,154.450 116.676,154.559 116.609 C 154.667 116.542,154.756 116.067,154.756 115.553 C 154.756 115.039,154.837 114.534,154.935 114.431 C 155.033 114.328,155.164 113.800,155.225 113.258 C 155.671 109.317,155.623 109.414,157.155 109.414 C 157.790 109.414,158.305 109.502,158.305 109.611 C 158.305 109.723,158.900 109.808,159.696 109.808 C 160.574 109.808,161.043 109.881,160.966 110.005 C 160.889 110.129,161.358 110.202,162.236 110.202 C 163.032 110.202,163.627 110.286,163.627 110.399 C 163.627 110.508,163.849 110.596,164.120 110.596 C 164.391 110.596,164.613 110.685,164.613 110.793 C 164.613 110.902,164.791 110.991,165.007 110.991 C 165.224 110.991,165.402 111.063,165.402 111.151 C 165.402 111.239,165.712 111.433,166.092 111.582 C 166.471 111.731,166.782 111.930,166.782 112.025 C 166.782 112.119,166.860 112.148,166.956 112.089 C 167.053 112.029,167.241 112.113,167.375 112.274 C 167.509 112.436,167.741 112.568,167.890 112.568 C 168.039 112.568,168.162 112.656,168.162 112.765 C 168.162 112.889,169.404 112.962,171.493 112.962 L 174.824 112.962 177.013 117.348 L 179.201 121.735 185.129 127.725 C 189.328 131.968,190.995 133.776,190.846 133.925 C 190.730 134.040,190.636 134.556,190.636 135.070 C 190.636 135.584,190.547 136.059,190.439 136.126 C 190.330 136.193,190.241 136.608,190.241 137.048 C 190.241 137.824,190.225 137.844,189.699 137.704 C 189.401 137.625,188.581 137.523,187.876 137.476 C 187.171 137.430,186.417 137.310,186.200 137.210 C 185.983 137.110,185.185 136.979,184.426 136.919 C 180.412 136.598,180.187 136.592,180.187 136.801 C 180.187 136.918,180.010 137.013,179.793 137.013 C 179.576 137.013,179.399 137.102,179.399 137.210 C 179.399 137.319,179.221 137.408,179.004 137.408 C 178.788 137.408,178.610 137.496,178.610 137.605 C 178.610 137.713,178.440 137.802,178.232 137.802 C 178.024 137.802,177.825 137.868,177.789 137.950 C 177.695 138.161,174.719 139.576,174.368 139.576 C 174.208 139.576,174.076 139.665,174.076 139.773 C 174.076 139.882,173.898 139.970,173.682 139.970 C 173.465 139.970,173.287 140.059,173.287 140.168 C 173.287 140.276,173.110 140.365,172.893 140.365 C 172.676 140.365,172.499 140.453,172.499 140.562 C 172.499 140.670,172.321 140.759,172.104 140.759 C 171.888 140.759,171.710 140.848,171.710 140.956 C 171.710 141.065,171.533 141.153,171.316 141.153 C 171.099 141.153,170.922 141.242,170.922 141.350 C 170.922 141.459,170.744 141.548,170.527 141.548 C 170.310 141.548,170.133 141.636,170.133 141.745 C 170.133 141.853,169.956 141.942,169.739 141.942 C 169.522 141.942,169.345 142.031,169.345 142.139 C 169.345 142.247,169.162 142.336,168.939 142.336 C 168.715 142.336,168.587 142.425,168.655 142.533 C 168.724 142.646,168.554 142.730,168.260 142.730 C 167.966 142.730,167.797 142.815,167.866 142.928 C 167.935 143.040,167.766 143.125,167.472 143.125 C 167.178 143.125,167.008 143.210,167.077 143.322 C 167.147 143.434,166.977 143.519,166.683 143.519 C 166.389 143.519,166.219 143.604,166.289 143.716 C 166.358 143.828,166.188 143.913,165.895 143.913 C 165.601 143.913,165.431 143.998,165.500 144.110 C 165.567 144.219,165.439 144.308,165.216 144.308 C 164.993 144.308,164.810 144.396,164.810 144.505 C 164.810 144.613,164.633 144.702,164.416 144.702 C 164.199 144.702,164.022 144.779,164.022 144.872 C 164.022 144.966,163.753 145.343,163.426 145.710 C 163.098 146.077,162.632 146.627,162.391 146.932 C 162.149 147.238,161.619 147.859,161.212 148.312 C 160.806 148.766,160.473 149.194,160.473 149.263 C 160.473 149.332,159.985 149.908,159.389 150.544 C 158.793 151.180,158.305 151.773,158.305 151.863 C 158.305 151.953,157.950 152.368,157.516 152.785 C 157.082 153.201,156.727 153.638,156.727 153.755 C 156.727 153.872,156.639 153.967,156.530 153.967 C 156.422 153.967,156.333 154.063,156.333 154.180 C 156.333 154.297,155.978 154.734,155.545 155.150 C 155.111 155.567,154.756 155.984,154.756 156.077 C 154.756 156.170,154.579 156.374,154.362 156.530 C 154.145 156.687,153.967 156.892,153.967 156.988 C 153.967 157.083,153.701 157.409,153.376 157.713 C 153.051 158.017,152.785 158.344,152.785 158.439 C 152.785 158.534,152.607 158.740,152.390 158.896 C 152.159 159.063,151.996 159.406,151.996 159.728 C 151.996 160.029,151.907 160.276,151.799 160.276 C 151.690 160.276,151.602 160.631,151.602 161.065 C 151.602 161.498,151.513 161.853,151.405 161.853 C 151.296 161.853,151.207 162.208,151.207 162.642 C 151.207 163.075,151.124 163.430,151.021 163.430 C 150.919 163.430,150.808 163.852,150.775 164.367 L 150.715 165.303 148.497 165.359 C 147.067 165.395,146.279 165.342,146.279 165.211 C 146.279 165.099,146.057 165.007,145.786 165.007 C 145.515 165.007,145.293 164.919,145.293 164.810 C 145.293 164.702,145.116 164.613,144.899 164.613 C 144.682 164.613,144.505 164.524,144.505 164.416 C 144.505 164.308,144.327 164.219,144.110 164.219 C 143.894 164.219,143.716 164.130,143.716 164.022 C 143.716 163.913,143.539 163.825,143.322 163.825 C 143.105 163.825,142.928 163.736,142.928 163.627 C 142.928 163.519,142.706 163.430,142.435 163.430 C 142.164 163.430,141.942 163.342,141.942 163.233 C 141.942 163.125,141.764 163.036,141.548 163.036 C 141.331 163.036,141.153 162.947,141.153 162.839 C 141.153 162.730,140.976 162.642,140.759 162.642 C 140.542 162.642,140.365 162.553,140.365 162.445 C 140.365 162.336,140.138 162.247,139.860 162.247 C 139.574 162.247,139.408 162.162,139.478 162.050 C 139.552 161.930,139.250 161.853,138.701 161.853 C 138.206 161.853,137.802 161.942,137.802 162.050 C 137.802 162.159,137.624 162.247,137.408 162.247 C 137.191 162.247,137.013 162.336,137.013 162.445 C 137.013 162.553,136.836 162.642,136.619 162.642 C 136.402 162.642,136.225 162.730,136.225 162.839 C 136.225 162.947,136.047 163.036,135.830 163.036 C 135.614 163.036,135.436 163.125,135.436 163.233 C 135.436 163.342,135.259 163.430,135.042 163.430 C 134.825 163.430,134.648 163.519,134.648 163.627 C 134.648 163.736,134.470 163.825,134.253 163.825 C 134.036 163.825,133.859 163.913,133.859 164.022 C 133.859 164.130,133.637 164.219,133.366 164.219 C 133.095 164.219,132.873 164.308,132.873 164.416 C 132.873 164.524,132.696 164.613,132.479 164.613 C 132.262 164.613,132.085 164.702,132.085 164.810 C 132.085 164.919,131.907 165.007,131.690 165.007 C 131.474 165.007,131.296 165.096,131.296 165.205 C 131.296 165.313,131.119 165.402,130.902 165.402 C 130.573 165.402,130.508 165.533,130.508 166.190 C 130.508 166.624,130.596 166.979,130.705 166.979 C 130.813 166.979,130.902 167.378,130.902 167.866 C 130.902 168.354,130.991 168.753,131.099 168.753 C 131.207 168.753,131.296 169.108,131.296 169.542 C 131.296 169.975,131.385 170.330,131.493 170.330 C 131.602 170.330,131.690 170.735,131.690 171.229 C 131.690 171.778,131.767 172.080,131.888 172.006 C 132.008 171.931,132.085 172.234,132.085 172.783 C 132.085 173.277,132.168 173.682,132.269 173.682 C 132.370 173.682,132.509 173.859,132.578 174.076 C 132.696 174.449,133.268 174.647,133.268 174.314 C 133.268 174.228,133.578 173.829,133.957 173.427 C 134.336 173.025,134.602 172.696,134.548 172.696 C 134.494 172.696,134.848 172.275,135.336 171.759 C 135.824 171.244,136.223 170.757,136.224 170.675 C 136.224 170.594,137.428 170.527,138.898 170.527 L 141.571 170.527 141.534 173.966 C 141.493 177.778,141.564 178.019,142.716 178.019 C 143.049 178.019,143.322 178.107,143.322 178.216 C 143.322 178.324,143.583 178.413,143.902 178.413 C 144.221 178.413,144.536 178.502,144.603 178.610 C 144.670 178.719,144.968 178.807,145.265 178.807 C 145.563 178.807,145.912 178.914,146.042 179.044 C 146.172 179.174,146.279 179.203,146.279 179.108 C 146.279 179.013,146.501 179.144,146.772 179.399 C 147.043 179.653,147.265 179.935,147.265 180.026 C 147.265 180.167,148.506 181.559,149.975 183.066 C 150.219 183.316,150.419 183.568,150.419 183.626 C 150.419 184.273,152.159 184.862,152.489 184.327 C 152.556 184.219,152.866 184.130,153.179 184.130 C 153.491 184.130,153.802 184.041,153.869 183.933 C 153.936 183.825,154.246 183.736,154.559 183.736 C 154.871 183.736,155.182 183.647,155.249 183.539 C 155.316 183.430,155.626 183.342,155.939 183.342 C 156.251 183.342,156.562 183.253,156.629 183.144 C 156.696 183.036,157.006 182.947,157.319 182.947 C 157.631 182.947,157.942 182.859,158.009 182.750 C 158.076 182.642,158.374 182.553,158.671 182.553 C 158.968 182.553,159.308 182.457,159.426 182.339 C 159.580 182.184,159.677 182.184,159.773 182.339 C 159.845 182.457,160.432 182.553,161.076 182.553 C 161.726 182.553,162.247 182.641,162.247 182.750 C 162.247 182.859,162.769 182.947,163.419 182.947 C 164.063 182.947,164.645 183.036,164.712 183.144 C 164.779 183.253,165.311 183.342,165.895 183.342 C 166.478 183.342,167.010 183.430,167.077 183.539 C 167.144 183.647,167.638 183.736,168.173 183.736 C 168.709 183.736,169.147 183.825,169.147 183.933 C 169.147 184.041,169.453 184.130,169.826 184.130 C 170.199 184.130,170.559 184.219,170.626 184.327 C 170.693 184.436,171.053 184.524,171.426 184.524 C 171.799 184.524,172.104 184.613,172.104 184.722 C 172.104 184.830,172.415 184.919,172.794 184.919 C 173.174 184.919,173.484 185.007,173.484 185.116 C 173.484 185.224,173.790 185.313,174.163 185.313 C 174.536 185.313,174.896 185.402,174.963 185.510 C 175.030 185.619,175.390 185.707,175.763 185.707 C 176.136 185.707,176.442 185.796,176.442 185.904 C 176.442 186.013,176.752 186.102,177.132 186.102 C 177.511 186.102,177.822 186.190,177.822 186.299 C 177.822 186.407,178.221 186.496,178.709 186.496 C 179.197 186.496,179.596 186.585,179.596 186.693 C 179.596 186.809,180.286 186.890,181.272 186.890 C 182.257 186.890,182.947 186.971,182.947 187.087 C 182.947 187.196,183.302 187.284,183.736 187.284 C 184.170 187.284,184.524 187.367,184.524 187.468 C 184.524 187.570,184.946 188.094,185.461 188.633 C 185.976 189.173,186.691 189.955,187.049 190.371 C 188.173 191.676,189.714 193.392,190.636 194.365 C 191.124 194.881,191.745 195.600,192.016 195.963 C 192.719 196.907,193.607 197.733,193.918 197.733 C 194.064 197.733,194.184 197.822,194.184 197.930 C 194.184 198.038,194.362 198.127,194.579 198.127 C 194.795 198.127,194.973 198.202,194.973 198.293 C 194.973 198.385,195.394 198.672,195.909 198.931 C 196.424 199.191,196.890 199.449,196.944 199.504 C 196.999 199.560,197.242 199.717,197.486 199.852 C 197.730 199.988,198.130 200.209,198.374 200.345 C 198.618 200.481,198.862 200.636,198.916 200.690 C 199.111 200.885,200.204 201.505,200.542 201.612 C 200.732 201.672,200.887 201.783,200.887 201.859 C 200.887 201.935,201.198 202.118,201.577 202.267 C 201.957 202.416,202.267 202.610,202.267 202.698 C 202.267 202.786,202.400 202.859,202.563 202.859 C 202.725 202.859,202.859 202.931,202.859 203.019 C 202.859 203.107,203.169 203.301,203.549 203.450 C 203.928 203.599,204.239 203.793,204.239 203.881 C 204.239 203.969,204.372 204.041,204.534 204.041 C 204.697 204.041,204.830 204.130,204.830 204.239 C 204.830 204.347,204.963 204.436,205.126 204.436 C 205.288 204.436,205.421 204.524,205.421 204.633 C 205.421 204.741,205.599 204.830,205.816 204.830 C 206.033 204.830,206.210 204.919,206.210 205.027 C 206.210 205.136,206.343 205.224,206.506 205.224 C 206.668 205.224,206.801 205.313,206.801 205.421 C 206.801 205.530,206.934 205.619,207.097 205.619 C 207.260 205.619,207.393 205.707,207.393 205.816 C 207.393 205.924,207.570 206.013,207.787 206.013 C 208.004 206.013,208.181 206.102,208.181 206.210 C 208.181 206.318,208.364 206.407,208.587 206.407 C 208.811 206.407,208.938 206.496,208.871 206.604 C 208.804 206.713,208.937 206.801,209.167 206.801 C 209.397 206.801,209.530 206.890,209.463 206.999 C 209.396 207.107,209.524 207.196,209.747 207.196 C 209.970 207.196,210.153 207.316,210.153 207.464 C 210.153 207.788,208.932 210.224,208.724 210.317 C 208.642 210.353,208.576 210.545,208.576 210.744 C 208.576 210.943,208.509 211.135,208.427 211.171 C 208.345 211.207,207.968 211.858,207.590 212.617 C 207.211 213.376,206.835 214.027,206.753 214.063 C 206.671 214.099,206.604 214.299,206.604 214.506 C 206.604 214.714,206.516 214.884,206.407 214.884 C 206.299 214.884,206.210 215.062,206.210 215.278 C 206.210 215.495,206.138 215.673,206.050 215.673 C 205.961 215.673,205.767 215.983,205.619 216.363 C 205.470 216.742,205.276 217.053,205.187 217.053 C 205.099 217.053,205.027 217.230,205.027 217.447 C 205.027 217.664,204.938 217.841,204.830 217.841 C 204.722 217.841,204.633 218.019,204.633 218.236 C 204.633 218.452,204.544 218.630,204.436 218.630 C 204.327 218.630,204.239 218.763,204.239 218.926 C 204.239 219.088,204.150 219.221,204.041 219.221 C 203.933 219.221,203.844 219.399,203.844 219.616 C 203.844 219.832,203.756 220.010,203.647 220.010 C 203.539 220.010,203.450 220.187,203.450 220.404 C 203.450 220.621,203.361 220.798,203.253 220.798 C 203.144 220.798,203.056 220.976,203.056 221.193 C 203.056 221.410,202.967 221.587,202.859 221.587 C 202.750 221.587,202.661 221.764,202.661 221.981 C 202.661 222.198,202.573 222.376,202.464 222.376 C 202.356 222.376,202.267 222.553,202.267 222.770 C 202.267 222.987,202.178 223.164,202.070 223.164 C 201.962 223.164,201.873 223.347,201.873 223.570 C 201.873 223.793,201.784 223.921,201.676 223.854 C 201.567 223.787,201.479 223.915,201.479 224.138 C 201.479 224.361,201.390 224.544,201.281 224.544 C 201.173 224.544,201.084 224.722,201.084 224.938 C 201.084 225.155,200.996 225.333,200.887 225.333 C 200.779 225.333,200.690 225.515,200.690 225.739 C 200.690 225.962,200.601 226.090,200.493 226.023 C 200.384 225.956,200.296 226.083,200.296 226.307 C 200.296 226.530,200.207 226.713,200.099 226.713 C 199.990 226.713,199.901 226.890,199.901 227.107 C 199.901 227.324,199.819 227.501,199.718 227.501 C 199.617 227.501,199.506 227.701,199.472 227.945 C 199.431 228.230,199.250 228.411,198.965 228.451 C 198.721 228.486,198.521 228.597,198.521 228.698 C 198.521 228.799,198.344 228.881,198.127 228.881 C 197.910 228.881,197.733 228.970,197.733 229.078 C 197.733 229.187,197.555 229.276,197.339 229.276 C 197.122 229.276,196.944 229.364,196.944 229.473 C 196.944 229.581,196.767 229.670,196.550 229.670 C 196.333 229.670,196.156 229.759,196.156 229.867 C 196.156 229.975,195.934 230.064,195.663 230.064 C 195.392 230.064,195.170 230.153,195.170 230.261 C 195.170 230.370,194.993 230.458,194.776 230.458 C 194.559 230.458,194.381 230.547,194.381 230.655 C 194.381 230.764,194.160 230.853,193.889 230.853 C 193.618 230.853,193.396 230.941,193.396 231.050 C 193.396 231.158,193.218 231.247,193.001 231.247 C 192.785 231.247,192.607 231.336,192.607 231.444 C 192.607 231.552,192.430 231.641,192.213 231.641 C 191.996 231.641,191.819 231.730,191.819 231.838 C 191.819 231.947,191.641 232.035,191.424 232.035 C 191.207 232.035,191.030 232.124,191.030 232.233 C 191.030 232.341,190.853 232.430,190.636 232.430 C 190.419 232.430,190.241 232.518,190.241 232.627 C 190.241 232.735,190.069 232.824,189.859 232.824 C 189.648 232.824,189.421 232.913,189.354 233.021 C 189.287 233.130,189.060 233.218,188.850 233.218 C 188.639 233.218,188.467 233.307,188.467 233.415 C 188.467 233.524,188.245 233.613,187.974 233.613 C 187.613 233.613,187.482 233.718,187.482 234.007 C 187.482 234.224,187.393 234.401,187.284 234.401 C 187.176 234.401,187.087 234.623,187.087 234.894 C 187.087 235.165,186.999 235.387,186.890 235.387 C 186.782 235.387,186.693 235.658,186.693 235.990 C 186.693 236.342,186.611 236.542,186.496 236.471 C 186.381 236.400,186.299 236.601,186.299 236.952 C 186.299 237.284,186.210 237.555,186.102 237.555 C 185.993 237.555,185.904 237.827,185.904 238.159 C 185.904 238.510,185.822 238.711,185.707 238.640 C 185.592 238.568,185.510 238.773,185.510 239.133 C 185.510 239.492,185.428 239.697,185.313 239.625 C 185.198 239.554,185.116 239.755,185.116 240.107 C 185.116 240.438,185.027 240.710,184.919 240.710 C 184.810 240.710,184.722 240.976,184.722 241.301 C 184.722 241.626,184.633 241.893,184.524 241.893 C 184.416 241.893,184.327 242.114,184.327 242.385 C 184.327 242.656,184.239 242.878,184.130 242.878 C 184.022 242.878,183.933 243.100,183.933 243.371 C 183.933 243.642,183.844 243.864,183.736 243.864 C 183.627 243.864,183.539 244.130,183.539 244.455 C 183.539 244.781,183.450 245.047,183.342 245.047 C 183.233 245.047,183.144 245.231,183.144 245.455 C 183.144 245.892,182.718 246.427,182.370 246.427 C 182.254 246.427,182.159 246.516,182.159 246.624 C 182.159 246.732,182.026 246.821,181.863 246.821 C 181.700 246.821,181.567 246.910,181.567 247.018 C 181.567 247.127,181.454 247.215,181.315 247.215 C 181.176 247.215,180.935 247.393,180.779 247.610 C 180.622 247.827,180.356 248.004,180.187 248.004 C 180.018 248.004,179.752 248.181,179.596 248.398 C 179.440 248.615,179.173 248.793,179.004 248.793 C 178.835 248.793,178.569 248.970,178.413 249.187 C 178.257 249.404,177.991 249.581,177.822 249.581 C 177.653 249.581,177.386 249.759,177.230 249.975 C 177.074 250.192,176.808 250.370,176.639 250.370 C 176.470 250.370,176.204 250.547,176.047 250.764 C 175.891 250.981,175.666 251.158,175.548 251.158 C 175.430 251.158,175.161 251.313,174.951 251.503 C 174.741 251.693,174.325 251.974,174.027 252.128 C 173.728 252.282,173.484 252.481,173.484 252.572 C 173.484 252.662,173.368 252.735,173.226 252.735 C 173.084 252.735,172.795 252.891,172.585 253.080 C 172.375 253.270,171.959 253.551,171.661 253.705 C 171.363 253.859,171.119 254.059,171.119 254.149 C 171.119 254.239,171.002 254.312,170.860 254.312 C 170.718 254.312,170.430 254.473,170.220 254.669 C 170.009 254.864,169.749 255.055,169.640 255.091 C 169.532 255.128,169.098 255.389,168.676 255.672 C 168.253 255.954,167.753 256.277,167.563 256.390 C 167.373 256.503,167.066 256.721,166.880 256.875 C 166.694 257.029,166.352 257.250,166.120 257.365 C 165.822 257.513,165.679 257.793,165.636 258.313 C 165.602 258.720,165.491 259.001,165.390 258.938 C 165.286 258.874,165.205 259.180,165.205 259.635 C 165.205 260.126,165.127 260.399,165.007 260.325 C 164.888 260.252,164.810 260.520,164.810 261.004 C 164.810 261.444,164.722 261.804,164.613 261.804 C 164.505 261.804,164.416 262.114,164.416 262.494 C 164.416 262.873,164.327 263.184,164.219 263.184 C 164.110 263.184,164.022 263.539,164.022 263.972 C 164.022 264.811,164.497 265.029,165.355 264.583 C 165.543 264.485,166.097 264.297,166.585 264.166 C 167.072 264.034,167.693 263.854,167.965 263.766 C 168.236 263.677,169.123 263.455,169.936 263.271 C 170.749 263.088,171.569 262.860,171.757 262.765 C 171.945 262.670,172.273 262.592,172.484 262.592 C 172.696 262.592,172.925 262.504,172.992 262.395 C 173.059 262.287,173.330 262.198,173.595 262.198 C 173.859 262.198,174.076 262.109,174.076 262.001 C 174.076 261.893,174.292 261.804,174.557 261.804 C 174.822 261.804,175.093 261.715,175.160 261.607 C 175.227 261.498,175.499 261.410,175.763 261.410 C 176.028 261.410,176.244 261.321,176.244 261.212 C 176.244 261.104,176.466 261.015,176.737 261.015 C 177.008 261.015,177.230 260.927,177.230 260.818 C 177.230 260.710,177.452 260.621,177.723 260.621 C 177.994 260.621,178.216 260.532,178.216 260.424 C 178.216 260.315,178.438 260.227,178.709 260.227 C 178.980 260.227,179.202 260.138,179.202 260.030 C 179.202 259.921,179.468 259.832,179.793 259.832 C 180.118 259.832,180.384 259.744,180.384 259.635 C 180.384 259.527,180.562 259.438,180.779 259.438 C 180.996 259.438,181.173 259.349,181.173 259.241 C 181.173 259.133,181.350 259.044,181.567 259.044 C 181.784 259.044,181.962 258.955,181.962 258.847 C 181.962 258.738,182.139 258.650,182.356 258.650 C 182.573 258.650,182.750 258.561,182.750 258.452 C 182.750 258.344,182.928 258.255,183.144 258.255 C 183.361 258.255,183.539 258.167,183.539 258.058 C 183.539 257.950,183.766 257.861,184.043 257.861 C 184.329 257.861,184.495 257.776,184.426 257.664 C 184.356 257.552,184.526 257.467,184.820 257.467 C 185.114 257.467,185.284 257.382,185.214 257.270 C 185.145 257.158,185.311 257.072,185.597 257.072 C 185.875 257.072,186.102 256.984,186.102 256.875 C 186.102 256.767,186.279 256.678,186.496 256.678 C 186.713 256.678,186.890 256.589,186.890 256.481 C 186.890 256.373,187.068 256.284,187.284 256.284 C 187.501 256.284,187.679 256.195,187.679 256.087 C 187.679 255.978,187.861 255.890,188.085 255.890 C 188.308 255.890,188.436 255.801,188.369 255.692 C 188.302 255.584,188.429 255.495,188.653 255.495 C 188.876 255.495,189.059 255.407,189.059 255.298 C 189.059 255.190,189.236 255.101,189.453 255.101 C 189.670 255.101,189.847 255.012,189.847 254.904 C 189.847 254.795,189.980 254.707,190.143 254.707 C 190.306 254.707,190.439 254.618,190.439 254.510 C 190.439 254.401,190.572 254.312,190.734 254.312 C 190.897 254.312,191.030 254.224,191.030 254.115 C 191.030 254.007,191.207 253.918,191.424 253.918 C 191.641 253.918,191.819 253.829,191.819 253.721 C 191.819 253.613,191.952 253.524,192.114 253.524 C 192.277 253.524,192.410 253.435,192.410 253.327 C 192.410 253.218,192.543 253.130,192.706 253.130 C 192.868 253.130,193.001 253.041,193.001 252.932 C 193.001 252.824,193.179 252.735,193.396 252.735 C 193.613 252.735,193.790 252.647,193.790 252.538 C 193.790 252.430,193.923 252.341,194.086 252.341 C 194.248 252.341,194.381 252.274,194.381 252.192 C 194.381 252.110,194.631 251.933,194.936 251.798 C 195.241 251.663,195.681 251.375,195.913 251.158 C 196.146 250.941,196.415 250.764,196.511 250.764 C 196.607 250.764,196.847 250.586,197.043 250.370 C 197.239 250.153,197.519 249.975,197.665 249.975 C 197.811 249.975,197.930 249.909,197.931 249.828 C 197.932 249.746,198.419 249.369,199.014 248.990 C 199.610 248.610,200.097 248.233,200.098 248.152 C 200.098 248.070,200.195 248.004,200.314 248.004 C 200.542 248.004,201.098 247.605,202.647 246.328 C 203.174 245.895,203.788 245.402,204.012 245.233 C 204.237 245.065,204.775 244.599,205.208 244.198 C 205.641 243.798,206.045 243.470,206.105 243.470 C 206.269 243.470,207.271 242.566,209.163 240.710 C 210.103 239.788,211.686 238.271,212.681 237.339 C 213.676 236.406,214.490 235.586,214.490 235.516 C 214.490 235.445,214.807 235.055,215.195 234.648 C 215.583 234.241,216.182 233.560,216.526 233.134 C 216.870 232.709,217.639 231.811,218.236 231.140 C 219.241 230.008,222.379 225.876,222.549 225.460 C 222.627 225.269,223.087 224.686,223.509 224.240 C 223.645 224.098,223.756 223.886,223.756 223.770 C 223.756 223.653,223.844 223.558,223.953 223.558 C 224.061 223.558,224.150 223.425,224.150 223.263 C 224.150 223.100,224.239 222.967,224.347 222.967 C 224.455 222.967,224.544 222.872,224.544 222.756 C 224.544 222.640,224.810 222.158,225.136 221.686 C 225.461 221.213,225.727 220.731,225.727 220.615 C 225.727 220.499,225.816 220.404,225.924 220.404 C 226.033 220.404,226.121 220.271,226.121 220.108 C 226.121 219.946,226.210 219.813,226.318 219.813 C 226.427 219.813,226.516 219.680,226.516 219.517 C 226.516 219.354,226.604 219.221,226.713 219.221 C 226.821 219.221,226.910 219.044,226.910 218.827 C 226.910 218.610,226.999 218.433,227.107 218.433 C 227.215 218.433,227.304 218.300,227.304 218.137 C 227.304 217.974,227.393 217.841,227.501 217.841 C 227.610 217.841,227.698 217.708,227.698 217.546 C 227.698 217.383,227.787 217.250,227.896 217.250 C 228.004 217.250,228.093 217.117,228.093 216.954 C 228.093 216.792,228.181 216.658,228.290 216.658 C 228.398 216.658,228.487 216.481,228.487 216.264 C 228.487 216.047,228.576 215.870,228.684 215.870 C 228.793 215.870,228.881 215.687,228.881 215.464 C 228.881 215.241,228.970 215.113,229.078 215.180 C 229.191 215.249,229.276 215.079,229.276 214.786 C 229.276 214.492,229.360 214.322,229.473 214.391 C 229.581 214.458,229.670 214.331,229.670 214.107 C 229.670 213.884,229.759 213.701,229.867 213.701 C 229.975 213.701,230.064 213.524,230.064 213.307 C 230.064 213.090,230.153 212.913,230.261 212.913 C 230.370 212.913,230.458 212.735,230.458 212.518 C 230.458 212.302,230.547 212.124,230.655 212.124 C 230.764 212.124,230.853 211.947,230.853 211.730 C 230.853 211.513,230.941 211.336,231.050 211.336 C 231.158 211.336,231.247 211.158,231.247 210.941 C 231.247 210.724,231.336 210.547,231.444 210.547 C 231.552 210.547,231.641 210.370,231.641 210.153 C 231.641 209.936,231.730 209.759,231.838 209.759 C 231.947 209.759,232.035 209.581,232.035 209.364 C 232.035 209.147,232.124 208.970,232.233 208.970 C 232.341 208.970,232.430 208.748,232.430 208.477 C 232.430 208.206,232.518 207.984,232.627 207.984 C 232.735 207.984,232.824 207.762,232.824 207.491 C 232.824 207.220,232.913 206.999,233.021 206.999 C 233.130 206.999,233.218 206.777,233.218 206.506 C 233.218 206.235,233.307 206.013,233.415 206.013 C 233.524 206.013,233.613 205.791,233.613 205.520 C 233.613 205.249,233.701 205.027,233.810 205.027 C 233.918 205.027,234.007 204.850,234.007 204.633 C 234.007 204.416,234.096 204.239,234.204 204.239 C 234.312 204.239,234.401 204.060,234.401 203.842 C 234.401 203.623,234.480 203.291,234.575 203.102 C 234.671 202.914,234.859 202.494,234.993 202.169 C 235.126 201.843,235.314 201.423,235.410 201.235 C 235.506 201.047,235.584 200.669,235.584 200.397 C 235.584 200.124,235.673 199.901,235.781 199.901 C 235.890 199.901,235.978 199.653,235.978 199.349 C 235.978 199.046,236.050 198.713,236.138 198.610 C 236.226 198.507,236.463 197.713,236.664 196.846 C 236.865 195.978,237.104 195.184,237.194 195.081 C 237.284 194.978,237.358 194.695,237.358 194.452 C 237.358 194.209,237.447 193.956,237.555 193.889 C 237.664 193.822,237.753 193.467,237.753 193.100 C 237.753 192.733,237.841 192.378,237.950 192.311 C 238.058 192.244,238.147 191.845,238.147 191.424 C 238.147 191.003,238.236 190.604,238.344 190.537 C 238.452 190.470,238.541 190.071,238.541 189.650 C 238.541 189.229,238.630 188.830,238.738 188.763 C 238.847 188.696,238.935 188.297,238.935 187.876 C 238.935 187.455,239.024 187.056,239.133 186.989 C 239.241 186.922,239.330 186.522,239.330 186.102 C 239.330 185.681,239.418 185.281,239.527 185.214 C 239.635 185.147,239.724 184.482,239.724 183.736 C 239.724 182.990,239.813 182.324,239.921 182.257 C 240.030 182.190,240.118 181.537,240.118 180.807 C 240.118 180.006,240.216 179.380,240.365 179.231 C 240.556 179.040,240.611 176.439,240.611 167.570 C 240.611 158.701,240.556 156.101,240.365 155.909 C 240.210 155.755,240.118 155.095,240.118 154.137 C 240.118 153.297,240.030 152.556,239.921 152.489 C 239.813 152.422,239.724 151.934,239.724 151.405 C 239.724 150.875,239.635 150.387,239.527 150.320 C 239.418 150.253,239.330 149.822,239.330 149.362 C 239.330 148.903,239.250 148.442,239.152 148.339 C 239.054 148.236,238.924 147.753,238.862 147.265 C 238.598 145.162,238.491 144.592,238.324 144.416 C 238.226 144.313,238.147 143.986,238.147 143.688 C 238.147 143.391,238.068 143.099,237.972 143.040 C 237.875 142.980,237.748 142.642,237.690 142.289 C 237.514 141.223,237.338 140.485,237.161 140.069 C 237.069 139.852,236.941 139.409,236.877 139.083 C 236.812 138.758,236.731 138.403,236.696 138.295 C 236.662 138.186,236.564 137.764,236.480 137.356 C 236.397 136.948,236.249 136.566,236.153 136.507 C 236.057 136.447,235.978 136.187,235.978 135.929 C 235.978 135.671,235.890 135.405,235.781 135.338 C 235.673 135.271,235.584 135.004,235.584 134.746 C 235.584 134.488,235.495 134.222,235.387 134.155 C 235.278 134.088,235.190 133.816,235.190 133.552 C 235.190 133.287,235.101 133.070,234.993 133.070 C 234.884 133.070,234.795 132.804,234.795 132.479 C 234.795 132.154,234.707 131.888,234.598 131.888 C 234.490 131.888,234.401 131.666,234.401 131.395 C 234.401 131.124,234.312 130.902,234.204 130.902 C 234.096 130.902,234.007 130.680,234.007 130.409 C 234.007 130.138,233.918 129.916,233.810 129.916 C 233.701 129.916,233.613 129.689,233.613 129.412 C 233.613 129.126,233.527 128.960,233.415 129.029 C 233.304 129.098,233.218 128.933,233.218 128.646 C 233.218 128.369,233.130 128.142,233.021 128.142 C 232.913 128.142,232.824 127.915,232.824 127.637 C 232.824 127.351,232.739 127.186,232.627 127.255 C 232.512 127.326,232.430 127.122,232.430 126.762 C 232.430 126.402,232.348 126.198,232.233 126.269 C 232.121 126.338,232.035 126.173,232.035 125.886 C 232.035 125.609,231.947 125.382,231.838 125.382 C 231.730 125.382,231.641 125.205,231.641 124.988 C 231.641 124.771,231.552 124.593,231.444 124.593 C 231.336 124.593,231.247 124.416,231.247 124.199 C 231.247 123.982,231.158 123.805,231.050 123.805 C 230.941 123.805,230.853 123.627,230.853 123.411 C 230.853 123.194,230.764 123.016,230.655 123.016 C 230.547 123.016,230.458 122.839,230.458 122.622 C 230.458 122.405,230.370 122.228,230.261 122.228 C 230.153 122.228,230.064 122.050,230.064 121.833 C 230.064 121.617,229.975 121.439,229.867 121.439 C 229.759 121.439,229.670 121.262,229.670 121.045 C 229.670 120.828,229.581 120.651,229.473 120.651 C 229.364 120.651,229.276 120.517,229.276 120.355 C 229.276 120.192,229.187 120.059,229.078 120.059 C 228.970 120.059,228.881 119.882,228.881 119.665 C 228.881 119.448,228.793 119.271,228.684 119.271 C 228.576 119.271,228.487 119.093,228.487 118.876 C 228.487 118.659,228.398 118.482,228.290 118.482 C 228.181 118.482,228.093 118.349,228.093 118.186 C 228.093 118.024,228.004 117.891,227.896 117.891 C 227.787 117.891,227.698 117.713,227.698 117.496 C 227.698 117.279,227.610 117.102,227.501 117.102 C 227.393 117.102,227.304 116.969,227.304 116.806 C 227.304 116.644,227.215 116.511,227.107 116.511 C 226.999 116.511,226.910 116.378,226.910 116.215 C 226.910 116.052,226.821 115.919,226.713 115.919 C 226.604 115.919,226.516 115.786,226.516 115.623 C 226.516 115.461,226.427 115.328,226.318 115.328 C 226.210 115.328,226.121 115.195,226.121 115.032 C 226.121 114.869,226.049 114.736,225.961 114.736 C 225.873 114.736,225.679 114.426,225.530 114.046 C 225.381 113.667,225.187 113.356,225.099 113.356 C 225.011 113.356,224.938 113.223,224.938 113.061 C 224.938 112.898,224.871 112.765,224.789 112.765 C 224.707 112.765,224.523 112.499,224.379 112.173 C 224.125 111.600,223.164 111.288,223.164 111.779 C 223.164 111.888,222.898 111.976,222.573 111.976 C 222.247 111.976,221.981 112.065,221.981 112.173 C 221.981 112.282,221.715 112.371,221.390 112.371 C 221.065 112.371,220.798 112.459,220.798 112.568 C 220.798 112.687,219.977 112.765,218.728 112.765 C 217.480 112.765,216.658 112.843,216.658 112.962 C 216.658 113.082,215.804 113.159,214.490 113.159 C 213.176 113.159,212.321 113.237,212.321 113.356 C 212.321 113.476,211.467 113.553,210.153 113.553 C 208.839 113.553,207.984 113.631,207.984 113.751 C 207.984 113.866,207.322 113.948,206.393 113.948 C 204.787 113.948,204.239 114.159,204.239 114.777 C 204.239 114.924,204.061 115.171,203.844 115.328 C 203.627 115.484,203.450 115.770,203.450 115.963 C 203.450 116.156,203.361 116.313,203.253 116.313 C 203.144 116.313,203.056 116.447,203.056 116.609 C 203.056 116.772,202.967 116.905,202.859 116.905 C 202.750 116.905,202.661 117.038,202.661 117.201 C 202.661 117.363,202.573 117.496,202.464 117.496 C 202.356 117.496,202.267 117.679,202.267 117.902 C 202.267 118.125,202.178 118.253,202.070 118.186 C 201.962 118.119,201.873 118.203,201.873 118.372 C 201.873 118.541,201.784 118.679,201.676 118.679 C 201.567 118.679,201.479 118.857,201.479 119.073 C 201.479 119.290,201.390 119.468,201.281 119.468 C 201.173 119.468,201.084 119.606,201.084 119.775 C 201.084 119.944,200.996 120.028,200.887 119.961 C 200.779 119.894,200.690 119.983,200.690 120.160 C 200.690 120.839,199.537 121.375,199.211 120.848 C 199.144 120.739,198.916 120.651,198.704 120.651 C 197.981 120.651,197.273 120.106,193.629 116.742 C 192.727 115.910,191.869 115.118,191.721 114.983 C 191.573 114.847,191.400 114.736,191.336 114.736 C 191.272 114.736,190.658 114.182,189.970 113.504 C 188.156 111.715,187.102 110.793,186.872 110.793 C 186.761 110.793,186.725 110.705,186.792 110.596 C 186.859 110.488,186.816 110.399,186.696 110.399 C 186.322 110.399,184.919 108.974,184.919 108.593 C 184.919 108.394,184.830 108.231,184.722 108.231 C 184.613 108.231,184.524 107.920,184.524 107.541 C 184.524 107.161,184.436 106.851,184.327 106.851 C 184.219 106.851,184.130 106.535,184.130 106.149 C 184.130 105.731,184.050 105.497,183.933 105.569 C 183.816 105.642,183.736 105.407,183.736 104.989 C 183.736 104.604,183.647 104.288,183.539 104.288 C 183.430 104.288,183.342 104.022,183.342 103.696 C 183.342 103.371,183.253 103.105,183.144 103.105 C 183.036 103.105,182.947 102.834,182.947 102.502 C 182.947 102.150,182.865 101.950,182.750 102.021 C 182.635 102.092,182.553 101.887,182.553 101.528 C 182.553 101.168,182.471 100.964,182.356 101.035 C 182.241 101.106,182.159 100.902,182.159 100.542 C 182.159 100.183,182.077 99.978,181.962 100.049 C 181.846 100.121,181.764 99.916,181.764 99.556 C 181.764 99.197,181.683 98.992,181.567 99.064 C 181.452 99.135,181.370 98.930,181.370 98.571 C 181.370 98.211,181.288 98.007,181.173 98.078 C 181.058 98.149,180.976 97.948,180.976 97.597 C 180.976 97.265,180.887 96.994,180.779 96.994 C 180.670 96.994,180.582 96.898,180.582 96.781 C 180.582 96.541,179.400 95.371,178.409 94.628 C 178.047 94.357,177.475 93.869,177.138 93.544 C 176.361 92.794,175.081 91.650,173.609 90.389 C 172.474 89.418,172.084 89.243,170.330 88.914 C 167.672 88.417,165.597 88.066,164.810 87.982 C 164.322 87.930,163.839 87.807,163.736 87.709 C 163.459 87.446,162.641 87.493,162.553 87.777 M61.705 115.328 C 61.705 115.436,61.356 115.525,60.928 115.525 C 60.501 115.525,60.097 115.614,60.030 115.722 C 59.963 115.830,59.558 115.919,59.131 115.919 C 58.703 115.919,58.354 116.008,58.354 116.116 C 58.354 116.225,57.955 116.313,57.467 116.313 C 56.979 116.313,56.580 116.402,56.580 116.511 C 56.580 116.619,56.266 116.708,55.883 116.708 C 55.040 116.708,54.214 117.207,54.214 117.716 C 54.214 117.921,54.125 118.088,54.017 118.088 C 53.908 118.088,53.820 118.221,53.820 118.383 C 53.820 118.546,53.731 118.679,53.622 118.679 C 53.514 118.679,53.425 118.857,53.425 119.073 C 53.425 119.290,53.337 119.468,53.228 119.468 C 53.120 119.468,53.031 119.645,53.031 119.862 C 53.031 120.079,52.942 120.256,52.834 120.256 C 52.725 120.256,52.637 120.439,52.637 120.662 C 52.637 120.885,52.548 121.013,52.440 120.946 C 52.331 120.879,52.242 121.007,52.242 121.230 C 52.242 121.454,52.154 121.636,52.045 121.636 C 51.937 121.636,51.848 121.819,51.848 122.042 C 51.848 122.265,51.759 122.393,51.651 122.326 C 51.539 122.257,51.454 122.427,51.454 122.721 C 51.454 123.014,51.369 123.184,51.257 123.115 C 51.145 123.046,51.060 123.211,51.060 123.497 C 51.060 123.775,50.971 124.002,50.862 124.002 C 50.754 124.002,50.665 124.179,50.665 124.396 C 50.665 124.613,50.577 124.791,50.468 124.791 C 50.360 124.791,50.271 125.018,50.271 125.295 C 50.271 125.581,50.186 125.747,50.074 125.678 C 49.962 125.609,49.877 125.774,49.877 126.060 C 49.877 126.338,49.788 126.565,49.680 126.565 C 49.571 126.565,49.483 126.742,49.483 126.959 C 49.483 127.176,49.394 127.353,49.285 127.353 C 49.177 127.353,49.088 127.531,49.088 127.748 C 49.088 127.965,49.000 128.142,48.891 128.142 C 48.783 128.142,48.694 128.364,48.694 128.635 C 48.694 128.906,48.605 129.128,48.497 129.128 C 48.388 129.128,48.300 129.349,48.300 129.621 C 48.300 129.892,48.211 130.113,48.103 130.113 C 47.994 130.113,47.905 130.335,47.905 130.606 C 47.905 130.877,47.817 131.099,47.708 131.099 C 47.600 131.099,47.511 131.316,47.511 131.580 C 47.511 131.845,47.422 132.116,47.314 132.183 C 47.206 132.250,47.117 132.522,47.117 132.786 C 47.117 133.051,47.028 133.268,46.920 133.268 C 46.811 133.268,46.723 133.489,46.723 133.760 C 46.723 134.032,46.634 134.253,46.525 134.253 C 46.417 134.253,46.328 134.470,46.328 134.735 C 46.328 134.999,46.240 135.271,46.131 135.338 C 46.023 135.405,45.934 135.715,45.934 136.028 C 45.934 136.340,45.857 136.643,45.763 136.702 C 45.625 136.786,45.413 137.605,45.263 138.623 C 45.253 138.696,45.177 138.821,45.096 138.903 C 45.015 138.984,44.948 139.252,44.948 139.499 C 44.948 139.745,44.869 139.996,44.773 140.056 C 44.607 140.158,44.491 140.657,44.230 142.387 C 44.168 142.794,44.039 143.176,43.942 143.236 C 43.845 143.296,43.765 143.645,43.765 144.012 C 43.765 144.379,43.677 144.733,43.568 144.800 C 43.460 144.867,43.371 145.222,43.371 145.589 C 43.371 145.956,43.282 146.311,43.174 146.378 C 43.066 146.445,42.977 146.888,42.977 147.363 C 42.977 147.838,42.888 148.282,42.780 148.349 C 42.671 148.416,42.583 148.904,42.583 149.433 C 42.583 149.963,42.494 150.450,42.385 150.517 C 42.277 150.585,42.188 151.117,42.188 151.700 C 42.188 152.284,42.100 152.816,41.991 152.883 C 41.883 152.950,41.794 153.603,41.794 154.334 C 41.794 155.134,41.696 155.761,41.548 155.909 C 41.188 156.269,41.188 179.427,41.548 179.547 C 41.715 179.602,41.794 180.094,41.794 181.079 C 41.794 181.877,41.883 182.585,41.991 182.652 C 42.100 182.719,42.188 183.206,42.188 183.736 C 42.188 184.265,42.277 184.753,42.385 184.820 C 42.494 184.887,42.583 185.425,42.583 186.015 C 42.583 186.605,42.671 187.087,42.780 187.087 C 42.888 187.087,42.977 187.481,42.977 187.963 C 42.977 188.444,43.066 188.893,43.174 188.960 C 43.282 189.027,43.371 189.426,43.371 189.847 C 43.371 190.268,43.460 190.667,43.568 190.734 C 43.677 190.801,43.765 191.156,43.765 191.523 C 43.765 191.890,43.844 192.238,43.941 192.298 C 44.037 192.358,44.162 192.696,44.218 193.049 C 44.274 193.402,44.412 194.002,44.525 194.381 C 44.783 195.254,45.130 196.530,45.247 197.043 C 45.448 197.918,45.978 199.627,46.147 199.948 C 46.247 200.136,46.328 200.469,46.328 200.687 C 46.328 200.906,46.417 201.084,46.525 201.084 C 46.634 201.084,46.723 201.350,46.723 201.676 C 46.723 202.001,46.811 202.267,46.920 202.267 C 47.028 202.267,47.117 202.489,47.117 202.760 C 47.117 203.031,47.206 203.253,47.314 203.253 C 47.422 203.253,47.511 203.475,47.511 203.746 C 47.511 204.017,47.600 204.239,47.708 204.239 C 47.817 204.239,47.905 204.460,47.905 204.731 C 47.905 205.002,47.994 205.224,48.103 205.224 C 48.211 205.224,48.300 205.446,48.300 205.717 C 48.300 205.988,48.388 206.210,48.497 206.210 C 48.605 206.210,48.694 206.432,48.694 206.703 C 48.694 206.974,48.783 207.196,48.891 207.196 C 49.000 207.196,49.088 207.373,49.088 207.590 C 49.088 207.807,49.177 207.984,49.285 207.984 C 49.394 207.984,49.483 208.206,49.483 208.477 C 49.483 208.748,49.571 208.970,49.680 208.970 C 49.788 208.970,49.877 209.147,49.877 209.364 C 49.877 209.581,49.966 209.759,50.074 209.759 C 50.182 209.759,50.271 209.936,50.271 210.153 C 50.271 210.370,50.360 210.547,50.468 210.547 C 50.577 210.547,50.665 210.774,50.665 211.052 C 50.665 211.338,50.751 211.503,50.862 211.434 C 50.971 211.367,51.060 211.495,51.060 211.718 C 51.060 211.942,51.148 212.124,51.257 212.124 C 51.365 212.124,51.454 212.302,51.454 212.518 C 51.454 212.735,51.543 212.913,51.651 212.913 C 51.759 212.913,51.848 213.090,51.848 213.307 C 51.848 213.524,51.937 213.701,52.045 213.701 C 52.154 213.701,52.242 213.879,52.242 214.096 C 52.242 214.312,52.331 214.490,52.440 214.490 C 52.548 214.490,52.637 214.667,52.637 214.884 C 52.637 215.101,52.725 215.278,52.834 215.278 C 52.942 215.278,53.031 215.456,53.031 215.673 C 53.031 215.890,53.120 216.067,53.228 216.067 C 53.337 216.067,53.425 216.200,53.425 216.363 C 53.425 216.525,53.514 216.658,53.622 216.658 C 53.731 216.658,53.820 216.792,53.820 216.954 C 53.820 217.117,53.908 217.250,54.017 217.250 C 54.125 217.250,54.214 217.427,54.214 217.644 C 54.214 217.861,54.303 218.038,54.411 218.038 C 54.519 218.038,54.608 218.172,54.608 218.334 C 54.608 218.497,54.680 218.630,54.769 218.630 C 54.857 218.630,55.051 218.940,55.200 219.320 C 55.349 219.699,55.542 220.010,55.631 220.010 C 55.719 220.010,55.791 220.143,55.791 220.306 C 55.791 220.468,55.880 220.601,55.988 220.601 C 56.097 220.601,56.185 220.734,56.185 220.897 C 56.185 221.060,56.274 221.193,56.382 221.193 C 56.491 221.193,56.580 221.326,56.580 221.488 C 56.580 221.651,56.668 221.784,56.777 221.784 C 56.885 221.784,56.974 221.917,56.974 222.080 C 56.974 222.242,57.063 222.376,57.171 222.376 C 57.279 222.376,57.368 222.492,57.368 222.634 C 57.368 222.776,57.523 223.065,57.713 223.275 C 57.903 223.485,58.184 223.901,58.338 224.199 C 58.492 224.497,58.691 224.741,58.781 224.741 C 58.872 224.741,58.945 224.829,58.945 224.936 C 58.945 225.043,59.074 225.287,59.232 225.478 C 59.389 225.669,60.077 226.571,60.759 227.482 C 61.442 228.393,62.289 229.502,62.640 229.947 C 62.991 230.391,63.433 230.976,63.622 231.247 C 63.911 231.662,65.033 232.928,65.993 233.921 C 66.129 234.061,66.240 234.227,66.240 234.290 C 66.240 234.638,73.871 242.287,74.219 242.287 C 74.328 242.287,75.345 243.192,76.602 244.406 C 76.742 244.542,76.915 244.653,76.985 244.653 C 77.056 244.653,77.484 244.961,77.936 245.339 C 79.742 246.847,80.634 247.546,81.716 248.300 C 82.339 248.733,82.964 249.199,83.105 249.335 C 83.247 249.470,83.450 249.581,83.557 249.581 C 83.665 249.581,83.782 249.653,83.818 249.740 C 83.893 249.921,85.665 251.158,85.850 251.158 C 85.916 251.158,86.161 251.336,86.393 251.552 C 86.626 251.769,86.933 251.947,87.075 251.947 C 87.217 251.947,87.334 252.035,87.334 252.144 C 87.334 252.252,87.467 252.341,87.629 252.341 C 87.792 252.341,87.925 252.430,87.925 252.538 C 87.925 252.647,88.058 252.735,88.221 252.735 C 88.383 252.735,88.517 252.824,88.517 252.932 C 88.517 253.041,88.650 253.130,88.812 253.130 C 88.975 253.130,89.108 253.202,89.108 253.290 C 89.108 253.378,89.418 253.572,89.798 253.721 C 90.177 253.870,90.488 254.064,90.488 254.152 C 90.488 254.240,90.665 254.312,90.882 254.312 C 91.099 254.312,91.276 254.401,91.276 254.510 C 91.276 254.618,91.410 254.707,91.572 254.707 C 91.735 254.707,91.868 254.795,91.868 254.904 C 91.868 255.012,92.001 255.101,92.164 255.101 C 92.326 255.101,92.459 255.190,92.459 255.298 C 92.459 255.407,92.637 255.495,92.854 255.495 C 93.070 255.495,93.248 255.584,93.248 255.692 C 93.248 255.801,93.425 255.890,93.642 255.890 C 93.859 255.890,94.036 255.978,94.036 256.087 C 94.036 256.195,94.214 256.284,94.431 256.284 C 94.648 256.284,94.825 256.373,94.825 256.481 C 94.825 256.589,95.002 256.678,95.219 256.678 C 95.436 256.678,95.614 256.767,95.614 256.875 C 95.614 256.984,95.796 257.072,96.020 257.072 C 96.243 257.072,96.371 257.161,96.304 257.270 C 96.234 257.382,96.404 257.467,96.698 257.467 C 96.992 257.467,97.162 257.552,97.092 257.664 C 97.023 257.776,97.193 257.861,97.486 257.861 C 97.780 257.861,97.950 257.946,97.881 258.058 C 97.812 258.170,97.977 258.255,98.263 258.255 C 98.541 258.255,98.768 258.344,98.768 258.452 C 98.768 258.561,98.945 258.650,99.162 258.650 C 99.379 258.650,99.556 258.738,99.556 258.847 C 99.556 258.955,99.783 259.044,100.061 259.044 C 100.347 259.044,100.513 259.129,100.444 259.241 C 100.374 259.353,100.540 259.438,100.826 259.438 C 101.104 259.438,101.331 259.527,101.331 259.635 C 101.331 259.744,101.552 259.832,101.824 259.832 C 102.095 259.832,102.316 259.921,102.316 260.030 C 102.316 260.138,102.543 260.227,102.821 260.227 C 103.107 260.227,103.273 260.312,103.204 260.424 C 103.132 260.539,103.333 260.621,103.685 260.621 C 104.016 260.621,104.288 260.710,104.288 260.818 C 104.288 260.927,104.510 261.015,104.781 261.015 C 105.052 261.015,105.274 261.104,105.274 261.212 C 105.274 261.321,105.495 261.410,105.766 261.410 C 106.037 261.410,106.259 261.498,106.259 261.607 C 106.259 261.715,106.476 261.804,106.740 261.804 C 107.005 261.804,107.277 261.893,107.344 262.001 C 107.411 262.109,107.677 262.198,107.935 262.198 C 108.193 262.198,108.459 262.287,108.526 262.395 C 108.593 262.504,108.822 262.592,109.034 262.592 C 109.245 262.592,109.573 262.671,109.761 262.768 C 110.290 263.040,112.258 263.578,112.721 263.578 C 112.949 263.578,113.191 263.667,113.258 263.775 C 113.325 263.884,113.635 263.972,113.948 263.972 C 114.260 263.972,114.565 264.051,114.624 264.148 C 114.727 264.313,115.226 264.430,116.955 264.691 C 117.363 264.752,117.745 264.882,117.805 264.979 C 117.865 265.076,118.263 265.155,118.691 265.155 C 119.118 265.155,119.468 265.244,119.468 265.352 C 119.468 265.461,119.862 265.550,120.343 265.550 C 120.825 265.550,121.274 265.638,121.341 265.747 C 121.408 265.855,121.895 265.944,122.425 265.944 C 122.954 265.944,123.442 266.033,123.509 266.141 C 123.576 266.249,124.064 266.338,124.593 266.338 C 125.123 266.338,125.611 266.427,125.678 266.535 C 125.745 266.644,126.442 266.732,127.227 266.732 C 128.106 266.732,128.749 266.827,128.901 266.979 C 129.245 267.322,151.995 267.339,152.409 266.996 C 152.562 266.870,152.952 266.737,153.277 266.701 C 153.603 266.664,153.856 266.545,153.840 266.437 C 153.824 266.328,153.711 264.643,153.588 262.691 C 153.465 260.739,153.268 258.433,153.151 257.565 C 152.844 255.287,153.026 253.563,153.971 249.778 C 154.093 249.290,154.241 248.602,154.299 248.249 C 154.358 247.895,154.484 247.557,154.581 247.498 C 154.677 247.438,154.756 247.089,154.756 246.723 C 154.756 246.356,154.845 246.001,154.953 245.934 C 155.062 245.867,155.150 245.512,155.150 245.145 C 155.150 244.779,155.230 244.430,155.327 244.370 C 155.424 244.310,155.557 243.905,155.622 243.471 C 155.688 243.037,155.795 242.326,155.861 241.891 C 155.927 241.457,156.060 241.052,156.157 240.993 C 156.254 240.933,156.333 240.584,156.333 240.217 C 156.333 239.850,156.422 239.495,156.530 239.428 C 156.639 239.361,156.727 239.006,156.727 238.640 C 156.727 238.273,156.816 237.918,156.925 237.851 C 157.033 237.784,157.122 237.387,157.122 236.969 C 157.122 236.539,157.229 236.169,157.368 236.119 C 157.565 236.048,157.565 235.946,157.368 235.612 C 157.233 235.383,157.122 234.977,157.122 234.711 C 157.122 234.445,157.033 234.172,156.925 234.105 C 156.816 234.038,156.727 233.678,156.727 233.305 C 156.727 232.932,156.639 232.627,156.530 232.627 C 156.422 232.627,156.333 232.366,156.333 232.047 C 156.333 231.728,156.244 231.413,156.136 231.345 C 156.028 231.278,155.939 230.924,155.939 230.557 C 155.939 230.190,155.850 229.835,155.742 229.768 C 155.633 229.701,155.545 229.391,155.545 229.078 C 155.545 228.766,155.456 228.455,155.347 228.388 C 155.239 228.321,155.150 228.011,155.150 227.698 C 155.150 227.386,155.072 227.082,154.976 227.022 C 154.880 226.963,154.754 226.670,154.696 226.370 C 154.639 226.071,154.503 225.515,154.396 225.136 C 154.288 224.756,154.012 223.780,153.781 222.967 C 153.551 222.154,153.324 221.311,153.278 221.094 C 152.996 219.769,152.903 219.486,152.660 219.205 C 152.511 219.034,152.449 218.834,152.521 218.762 C 152.594 218.689,152.566 218.630,152.460 218.630 C 152.354 218.630,152.145 218.319,151.996 217.940 C 151.847 217.560,151.653 217.250,151.565 217.250 C 151.477 217.250,151.405 217.072,151.405 216.856 C 151.405 216.639,151.316 216.461,151.207 216.461 C 151.099 216.461,151.010 216.284,151.010 216.067 C 151.010 215.850,150.922 215.673,150.813 215.673 C 150.705 215.673,150.616 215.495,150.616 215.278 C 150.616 215.062,150.527 214.884,150.419 214.884 C 150.310 214.884,150.222 214.751,150.222 214.588 C 150.222 214.426,150.133 214.293,150.025 214.293 C 149.916 214.293,149.828 214.115,149.828 213.898 C 149.828 213.682,149.739 213.504,149.630 213.504 C 149.522 213.504,149.433 213.327,149.433 213.110 C 149.433 212.893,149.345 212.716,149.236 212.716 C 149.128 212.716,149.039 212.533,149.039 212.310 C 149.039 212.086,148.950 211.959,148.842 212.026 C 148.733 212.093,148.645 211.965,148.645 211.742 C 148.645 211.518,148.556 211.336,148.448 211.336 C 148.339 211.336,148.250 211.153,148.250 210.930 C 148.250 210.706,148.162 210.579,148.053 210.646 C 147.945 210.713,147.856 210.585,147.856 210.362 C 147.856 210.138,147.767 209.956,147.659 209.956 C 147.551 209.956,147.462 209.778,147.462 209.561 C 147.462 209.345,147.373 209.167,147.265 209.167 C 147.156 209.167,147.068 208.990,147.068 208.773 C 147.068 208.556,146.979 208.379,146.870 208.379 C 146.762 208.379,146.673 208.196,146.673 207.973 C 146.673 207.749,146.585 207.622,146.476 207.689 C 146.368 207.756,146.279 207.628,146.279 207.404 C 146.279 207.181,146.190 206.999,146.082 206.999 C 145.973 206.999,145.885 206.644,145.885 206.210 C 145.885 205.776,145.973 205.421,146.082 205.421 C 146.190 205.421,146.279 205.194,146.279 204.917 C 146.279 204.631,146.364 204.465,146.476 204.534 C 146.588 204.604,146.673 204.434,146.673 204.140 C 146.673 203.846,146.758 203.676,146.870 203.746 C 146.982 203.815,147.068 203.649,147.068 203.363 C 147.068 203.086,147.156 202.859,147.265 202.859 C 147.373 202.859,147.462 202.681,147.462 202.464 C 147.462 202.247,147.551 202.070,147.659 202.070 C 147.767 202.070,147.856 201.893,147.856 201.676 C 147.856 201.459,147.945 201.281,148.053 201.281 C 148.162 201.281,148.250 201.104,148.250 200.887 C 148.250 200.670,148.339 200.493,148.448 200.493 C 148.556 200.493,148.645 200.315,148.645 200.099 C 148.645 199.882,148.733 199.704,148.842 199.704 C 148.950 199.704,149.039 199.527,149.039 199.310 C 149.039 199.093,149.128 198.916,149.236 198.916 C 149.345 198.916,149.433 198.738,149.433 198.521 C 149.433 198.305,149.522 198.127,149.630 198.127 C 149.739 198.127,149.828 197.900,149.828 197.623 C 149.828 197.337,149.913 197.171,150.025 197.240 C 150.136 197.309,150.222 197.143,150.222 196.857 C 150.222 196.580,150.310 196.353,150.419 196.353 C 150.527 196.353,150.616 196.175,150.616 195.959 C 150.616 195.742,150.705 195.564,150.813 195.564 C 150.922 195.564,151.010 195.387,151.010 195.170 C 151.010 194.953,151.099 194.776,151.207 194.776 C 151.316 194.776,151.405 194.604,151.405 194.393 C 151.405 194.183,151.493 193.956,151.602 193.889 C 151.710 193.822,151.799 193.595,151.799 193.384 C 151.799 193.174,151.894 193.001,152.009 193.001 C 152.529 193.001,152.094 191.917,151.549 191.854 C 151.249 191.820,151.055 191.709,151.117 191.608 C 151.180 191.507,150.915 191.424,150.529 191.424 C 150.143 191.424,149.828 191.336,149.828 191.227 C 149.828 191.119,149.517 191.030,149.138 191.030 C 148.758 191.030,148.448 190.941,148.448 190.833 C 148.448 190.724,148.181 190.636,147.856 190.636 C 147.531 190.636,147.265 190.547,147.265 190.439 C 147.265 190.330,146.954 190.241,146.575 190.241 C 146.195 190.241,145.885 190.153,145.885 190.044 C 145.885 189.936,145.750 189.847,145.585 189.847 C 145.420 189.847,143.647 188.206,141.644 186.200 C 139.640 184.194,137.868 182.553,137.704 182.553 C 137.541 182.553,137.408 182.464,137.408 182.356 C 137.408 182.247,137.008 182.159,136.520 182.159 C 136.033 182.159,135.633 182.070,135.633 181.962 C 135.633 181.853,135.234 181.764,134.746 181.764 C 134.258 181.764,133.859 181.676,133.859 181.567 C 133.859 181.459,133.460 181.370,132.972 181.370 C 132.484 181.370,132.085 181.281,132.085 181.173 C 132.085 181.065,131.730 180.976,131.296 180.976 C 130.862 180.976,130.508 180.887,130.508 180.779 C 130.508 180.670,130.108 180.582,129.621 180.582 C 129.133 180.582,128.733 180.493,128.733 180.384 C 128.733 180.276,128.334 180.187,127.846 180.187 C 127.358 180.187,126.959 180.099,126.959 179.990 C 126.959 179.882,126.560 179.793,126.072 179.793 C 125.584 179.793,125.185 179.704,125.185 179.596 C 125.185 179.487,124.780 179.399,124.286 179.399 C 123.737 179.399,123.435 179.322,123.509 179.202 C 123.584 179.081,123.281 179.004,122.732 179.004 C 122.238 179.004,121.833 178.916,121.833 178.807 C 121.833 178.699,121.714 178.610,121.569 178.610 C 121.324 178.610,119.750 175.576,119.896 175.385 C 119.931 175.338,119.792 175.113,119.585 174.885 C 119.378 174.657,119.266 174.470,119.335 174.470 C 119.404 174.470,119.285 174.157,119.070 173.774 C 118.855 173.391,118.679 172.948,118.679 172.788 C 118.679 172.629,118.590 172.499,118.482 172.499 C 118.374 172.499,118.285 172.321,118.285 172.104 C 118.285 171.888,118.196 171.710,118.088 171.710 C 117.979 171.710,117.891 171.533,117.891 171.316 C 117.891 171.099,117.802 170.922,117.693 170.922 C 117.585 170.922,117.496 170.744,117.496 170.527 C 117.496 170.310,117.408 170.133,117.299 170.133 C 117.191 170.133,117.102 169.906,117.102 169.629 C 117.102 169.342,117.017 169.177,116.905 169.246 C 116.793 169.315,116.708 169.149,116.708 168.863 C 116.708 168.586,116.625 168.359,116.524 168.359 C 116.423 168.359,116.313 168.159,116.278 167.915 C 116.229 167.568,116.087 167.472,115.623 167.472 L 115.032 167.472 114.977 170.512 C 114.936 172.813,114.984 173.592,115.175 173.713 C 115.320 173.805,114.948 173.874,114.293 173.876 C 113.502 173.878,113.159 173.803,113.159 173.627 C 113.159 173.488,112.982 173.246,112.765 173.090 C 112.548 172.934,112.371 172.693,112.371 172.554 C 112.371 172.415,112.282 172.302,112.173 172.302 C 112.065 172.302,111.976 172.188,111.976 172.049 C 111.976 171.911,111.799 171.669,111.582 171.513 C 111.365 171.357,111.188 171.115,111.188 170.977 C 111.188 170.838,111.099 170.724,110.991 170.724 C 110.882 170.724,110.793 170.611,110.793 170.472 C 110.793 170.334,110.616 170.092,110.399 169.936 C 110.182 169.780,110.005 169.538,110.005 169.400 C 110.005 169.261,109.916 169.147,109.808 169.147 C 109.699 169.147,109.611 169.034,109.611 168.895 C 109.611 168.756,109.433 168.515,109.216 168.359 C 109.000 168.202,108.822 167.961,108.822 167.822 C 108.822 167.684,108.733 167.570,108.625 167.570 C 108.517 167.570,108.428 167.457,108.428 167.318 C 108.428 167.179,108.250 166.938,108.034 166.782 C 107.817 166.625,107.639 166.397,107.639 166.275 C 107.639 166.152,107.373 165.773,107.048 165.433 C 106.723 165.092,106.456 164.741,106.456 164.652 C 106.456 164.563,106.301 164.315,106.111 164.101 C 105.705 163.643,104.715 162.356,104.231 161.656 C 104.043 161.385,103.580 160.764,103.202 160.276 C 102.823 159.788,102.452 159.256,102.376 159.093 C 102.301 158.931,101.991 158.531,101.687 158.206 C 101.384 157.881,101.135 157.517,101.134 157.399 C 101.134 157.280,100.956 157.022,100.739 156.826 C 100.522 156.630,100.345 156.395,100.345 156.305 C 100.345 156.148,99.942 155.606,99.409 155.044 C 99.220 154.845,99.162 152.875,99.162 146.589 C 99.162 141.257,99.093 138.393,98.965 138.393 C 98.857 138.393,98.768 138.260,98.768 138.098 C 98.768 137.935,98.679 137.802,98.571 137.802 C 98.462 137.802,98.374 137.624,98.374 137.408 C 98.374 137.191,98.285 137.013,98.176 137.013 C 98.068 137.013,97.979 136.875,97.979 136.706 C 97.979 136.537,97.891 136.453,97.782 136.520 C 97.674 136.587,97.585 136.460,97.585 136.236 C 97.585 136.013,97.496 135.830,97.388 135.830 C 97.279 135.830,97.191 135.648,97.191 135.425 C 97.191 135.201,97.102 135.073,96.994 135.140 C 96.885 135.207,96.796 135.124,96.796 134.955 C 96.796 134.786,96.708 134.648,96.599 134.648 C 96.491 134.648,96.402 134.470,96.402 134.253 C 96.402 134.036,96.313 133.859,96.205 133.859 C 96.097 133.859,96.008 133.726,96.008 133.563 C 96.008 133.401,95.919 133.268,95.811 133.268 C 95.702 133.268,95.614 133.135,95.614 132.972 C 95.614 132.809,95.525 132.676,95.416 132.676 C 95.308 132.676,95.219 132.543,95.219 132.380 C 95.219 132.218,95.131 132.085,95.022 132.085 C 94.914 132.085,94.825 131.952,94.825 131.789 C 94.825 131.626,94.736 131.493,94.628 131.493 C 94.519 131.493,94.431 131.316,94.431 131.099 C 94.431 130.882,94.342 130.705,94.234 130.705 C 94.125 130.705,94.036 130.572,94.036 130.409 C 94.036 130.246,93.948 130.113,93.839 130.113 C 93.731 130.113,93.642 129.980,93.642 129.818 C 93.642 129.655,93.553 129.522,93.445 129.522 C 93.337 129.522,93.248 129.389,93.248 129.226 C 93.248 129.064,93.176 128.931,93.088 128.931 C 92.999 128.931,92.805 128.620,92.656 128.241 C 92.508 127.861,92.314 127.551,92.225 127.551 C 92.137 127.551,92.065 127.417,92.065 127.255 C 92.065 127.092,91.976 126.959,91.868 126.959 C 91.759 126.959,91.671 126.826,91.671 126.663 C 91.671 126.501,91.582 126.368,91.474 126.368 C 91.365 126.368,91.276 126.235,91.276 126.072 C 91.276 125.909,91.188 125.776,91.079 125.776 C 90.971 125.776,90.882 125.599,90.882 125.382 C 90.882 125.165,90.793 124.988,90.685 124.988 C 90.577 124.988,90.488 124.855,90.488 124.692 C 90.488 124.529,90.399 124.396,90.291 124.396 C 90.182 124.396,90.094 124.271,90.094 124.117 C 90.094 123.963,90.027 123.808,89.946 123.772 C 89.765 123.691,89.122 122.645,88.979 122.195 C 88.868 121.851,88.035 121.545,87.727 121.735 C 87.532 121.856,85.466 122.190,83.884 122.357 C 83.342 122.414,82.814 122.542,82.711 122.640 C 82.608 122.739,82.053 122.819,81.479 122.819 C 80.904 122.819,80.434 122.908,80.434 123.016 C 80.434 123.125,79.946 123.213,79.349 123.213 C 78.753 123.213,78.265 123.302,78.265 123.411 C 78.265 123.520,77.739 123.608,77.082 123.608 C 76.425 123.608,75.899 123.695,75.899 123.805 C 75.899 123.913,75.412 124.002,74.815 124.002 C 74.219 124.002,73.731 124.091,73.731 124.199 C 73.731 124.638,60.258 124.448,59.779 124.002 C 59.547 123.785,59.304 123.608,59.240 123.608 C 59.176 123.608,58.638 123.297,58.045 122.918 C 57.452 122.538,56.879 122.228,56.773 122.228 C 56.667 122.228,56.580 122.154,56.580 122.064 C 56.580 121.974,56.357 121.781,56.086 121.636 C 55.524 121.335,55.607 121.208,56.974 120.260 C 57.353 119.997,57.797 119.641,57.960 119.468 C 58.122 119.295,58.566 118.938,58.945 118.674 C 59.325 118.411,59.839 117.993,60.088 117.747 C 60.337 117.501,60.603 117.299,60.679 117.299 C 61.041 117.299,62.529 115.704,62.424 115.429 C 62.297 115.099,61.705 115.015,61.705 115.328 M251.750 180.976 L 251.750 197.930 257.368 197.930 L 262.987 197.930 262.987 201.577 C 262.987 203.605,263.065 205.224,263.164 205.224 C 263.388 205.224,265.243 203.982,265.696 203.529 C 265.883 203.342,266.481 202.904,267.025 202.555 C 267.569 202.207,268.236 201.702,268.507 201.433 C 268.778 201.165,269.187 200.847,269.417 200.726 C 269.646 200.606,270.570 199.927,271.470 199.219 C 272.611 198.319,273.274 197.930,273.664 197.930 L 274.224 197.930 274.224 209.167 L 274.224 220.404 284.176 220.404 L 294.128 220.404 294.674 220.897 C 295.270 221.436,298.916 224.188,299.942 224.873 C 300.294 225.109,300.881 225.574,301.247 225.908 C 301.612 226.242,301.990 226.516,302.086 226.516 C 302.181 226.516,302.596 226.782,303.006 227.107 C 304.197 228.050,304.189 228.070,304.189 224.051 L 304.189 220.404 309.808 220.404 L 315.426 220.404 315.426 203.450 L 315.426 186.496 304.189 186.496 L 292.952 186.496 292.952 175.259 L 292.952 164.022 272.351 164.022 L 251.750 164.022 251.750 180.976 M289.207 177.132 L 289.207 186.496 285.278 186.496 L 281.350 186.496 280.784 185.461 C 280.472 184.892,280.117 184.248,279.996 184.032 C 279.875 183.815,279.437 182.905,279.024 182.011 C 278.611 181.116,278.205 180.384,278.121 180.384 C 278.038 180.384,277.969 180.301,277.969 180.199 C 277.969 180.097,277.615 179.260,277.181 178.338 C 276.747 177.417,276.392 176.582,276.392 176.484 C 276.392 176.386,276.215 176.145,275.998 175.949 C 275.781 175.752,275.604 175.486,275.604 175.357 C 275.604 175.002,272.636 169.147,272.456 169.147 C 272.228 169.147,271.927 169.571,271.757 170.133 C 271.675 170.404,271.547 170.670,271.472 170.724 C 271.267 170.873,263.184 187.113,263.184 187.376 C 263.184 187.693,264.065 188.313,265.435 188.961 L 266.591 189.508 266.949 189.037 C 267.146 188.778,267.684 187.743,268.145 186.738 L 268.982 184.910 272.418 184.964 L 275.853 185.017 276.224 185.707 L 276.595 186.397 275.409 186.456 L 274.224 186.515 274.224 190.152 L 274.224 193.790 272.870 193.790 C 271.520 193.790,271.125 193.952,270.123 194.916 C 269.981 195.052,269.380 195.485,268.787 195.879 C 268.193 196.273,267.618 196.762,267.509 196.967 C 267.103 197.726,266.930 197.306,266.930 195.564 L 266.930 193.790 261.212 193.790 L 255.495 193.790 255.495 180.910 C 255.495 173.826,255.554 167.971,255.627 167.899 C 255.699 167.827,263.284 167.767,272.482 167.767 L 289.207 167.767 289.207 177.132 M273.038 179.497 C 273.041 179.606,273.171 179.938,273.326 180.237 L 273.609 180.779 272.344 180.779 L 271.080 180.779 271.715 179.603 L 272.351 178.428 272.692 178.864 C 272.879 179.104,273.035 179.389,273.038 179.497 M311.681 203.253 L 311.681 216.264 305.964 216.264 L 300.246 216.264 300.246 218.038 C 300.246 219.014,300.203 219.813,300.150 219.813 C 300.036 219.813,299.378 219.282,298.793 218.718 C 298.562 218.495,297.975 218.051,297.488 217.732 C 297.000 217.413,296.398 216.952,296.148 216.708 L 295.694 216.264 286.832 216.264 L 277.969 216.264 277.969 203.253 L 277.969 190.241 294.825 190.241 L 311.681 190.241 311.681 203.253 M292.755 195.659 L 292.755 197.527 289.059 197.581 L 285.362 197.634 285.306 199.655 L 285.250 201.676 287.305 201.676 L 289.361 201.676 289.495 202.218 C 289.722 203.134,290.829 205.234,291.185 205.425 C 291.974 205.848,291.794 206.397,290.621 207.142 C 290.005 207.532,289.458 207.913,289.404 207.988 C 289.261 208.185,287.772 208.664,287.482 208.607 C 287.296 208.570,287.235 209.104,287.235 210.761 L 287.235 212.964 288.217 212.833 C 289.100 212.716,289.866 212.414,291.926 211.369 C 292.284 211.188,293.072 210.669,293.679 210.216 C 294.900 209.303,295.011 209.316,296.296 210.524 C 296.816 211.013,298.977 212.124,299.409 212.124 C 299.544 212.124,299.655 212.202,299.655 212.298 C 299.655 212.499,301.171 212.913,301.911 212.913 L 302.415 212.913 302.415 210.865 L 302.415 208.818 301.432 208.497 C 300.407 208.161,297.625 206.381,297.859 206.210 C 298.222 205.943,299.443 203.844,299.664 203.105 C 299.802 202.644,299.989 202.267,300.080 202.267 C 300.172 202.267,300.246 202.134,300.246 201.971 C 300.246 201.728,300.597 201.676,302.218 201.676 L 304.189 201.676 304.189 199.606 L 304.189 197.536 300.542 197.536 L 296.895 197.536 296.895 195.663 L 296.895 193.790 294.825 193.790 L 292.755 193.790 292.755 195.659 M295.536 202.021 C 294.949 203.089,294.826 203.146,294.366 202.561 C 293.760 201.791,293.821 201.676,294.832 201.676 C 295.624 201.676,295.704 201.715,295.536 202.021 M257.861 229.096 C 257.590 229.178,256.780 229.331,256.061 229.435 C 253.092 229.869,250.166 231.892,248.398 234.733 C 248.118 235.184,248.032 235.202,246.723 235.085 C 245.373 234.964,242.565 235.373,242.300 235.729 C 242.239 235.812,241.668 236.146,241.033 236.471 C 239.665 237.171,238.244 238.665,237.921 239.743 C 237.794 240.166,237.627 240.513,237.549 240.513 C 237.144 240.513,236.758 245.611,236.952 248.409 C 237.172 251.589,238.015 252.272,241.492 252.089 C 245.270 251.890,246.003 251.018,245.582 247.223 C 245.323 244.888,245.538 243.199,246.246 242.004 L 246.706 241.228 247.037 242.891 C 247.502 245.227,248.120 246.700,249.057 247.708 C 249.259 247.925,249.646 248.388,249.916 248.738 C 250.781 249.854,253.490 251.537,255.106 251.961 C 257.788 252.665,262.574 252.242,263.791 251.192 C 263.945 251.059,264.508 250.668,265.043 250.322 C 267.557 248.697,269.195 246.177,269.881 242.878 L 270.230 241.203 270.573 241.987 C 271.184 243.386,271.355 245.092,271.104 247.287 C 270.673 251.057,271.805 252.139,276.181 252.143 C 278.708 252.145,279.584 251.311,279.698 248.793 C 279.735 247.979,279.854 247.133,279.962 246.912 C 280.096 246.641,280.092 246.333,279.952 245.963 C 279.837 245.662,279.742 244.822,279.739 244.098 C 279.725 240.306,278.310 237.638,275.641 236.371 C 275.078 236.104,274.618 235.828,274.618 235.758 C 274.618 235.461,272.599 235.125,270.717 235.109 L 268.689 235.091 267.747 233.810 C 267.228 233.105,266.485 232.286,266.095 231.989 C 265.706 231.693,265.248 231.312,265.080 231.143 C 264.343 230.406,261.073 229.276,259.679 229.276 C 259.316 229.276,258.869 229.202,258.686 229.111 C 258.503 229.021,258.132 229.014,257.861 229.096 M306.456 231.920 C 299.654 233.496,295.763 240.293,297.841 246.969 C 298.086 247.755,298.362 248.398,298.454 248.398 C 298.546 248.398,298.739 248.681,298.882 249.026 C 299.239 249.890,300.810 251.725,301.803 252.440 C 302.255 252.765,302.811 253.184,303.037 253.371 C 304.854 254.869,309.602 255.300,312.868 254.262 C 314.208 253.837,317.398 251.794,317.398 251.361 C 317.398 251.292,317.721 250.885,318.116 250.457 C 318.988 249.512,319.868 247.719,320.183 246.241 C 320.312 245.638,320.492 245.061,320.583 244.958 C 320.799 244.714,320.799 241.831,320.583 241.587 C 320.492 241.484,320.312 240.907,320.183 240.304 C 319.640 237.760,318.440 236.018,315.604 233.652 C 313.712 232.075,309.352 231.249,306.456 231.920 M248.462 254.706 C 247.744 255.065,247.191 255.491,247.054 255.790 C 246.931 256.062,246.740 256.284,246.631 256.284 C 246.521 256.284,246.110 256.927,245.718 257.713 C 245.325 258.499,244.804 259.409,244.559 259.735 C 244.315 260.061,243.801 260.948,243.417 261.706 C 243.033 262.465,242.501 263.403,242.235 263.792 C 241.969 264.180,241.333 265.266,240.822 266.204 C 240.311 267.142,239.815 267.958,239.720 268.016 C 239.626 268.074,239.224 268.763,238.828 269.547 C 238.431 270.330,237.906 271.237,237.661 271.562 C 237.417 271.888,236.928 272.730,236.576 273.435 C 236.223 274.140,235.737 274.983,235.496 275.308 C 235.254 275.633,234.674 276.639,234.206 277.542 C 233.737 278.446,233.253 279.289,233.129 279.415 C 233.005 279.542,232.472 280.444,231.944 281.419 C 231.417 282.395,230.919 283.238,230.839 283.293 C 230.758 283.347,230.314 284.101,229.852 284.968 C 229.389 285.836,228.849 286.781,228.651 287.068 C 227.587 288.611,228.278 291.957,229.995 293.582 C 231.449 294.958,234.937 295.170,236.158 293.958 C 236.332 293.784,236.714 293.456,237.005 293.228 C 237.525 292.821,238.833 290.762,240.187 288.221 C 240.562 287.516,241.087 286.621,241.353 286.233 C 241.619 285.844,242.266 284.735,242.791 283.769 C 243.317 282.802,243.852 281.903,243.981 281.771 C 244.111 281.639,244.426 281.107,244.681 280.588 L 245.145 279.645 245.208 282.011 C 245.270 284.323,244.819 289.159,244.445 290.192 C 244.348 290.463,243.820 294.278,243.272 298.669 C 242.725 303.061,242.191 306.857,242.085 307.105 C 240.894 309.910,242.482 313.617,244.889 313.648 C 245.198 313.652,245.229 314.299,245.283 321.981 C 245.342 330.198,245.349 330.324,245.797 331.296 C 246.574 332.983,248.366 334.345,249.816 334.350 C 250.108 334.351,250.396 334.433,250.457 334.532 C 250.737 334.983,253.893 333.755,254.810 332.837 C 256.269 331.379,256.284 331.266,256.284 321.897 L 256.284 313.652 258.206 313.652 L 260.128 313.652 260.074 321.660 C 260.045 326.095,260.099 329.767,260.195 329.891 C 260.291 330.013,260.432 330.379,260.509 330.705 C 261.640 335.492,268.412 335.736,270.777 331.075 L 271.265 330.113 271.266 321.907 L 271.267 313.701 271.885 313.578 C 273.552 313.244,274.618 311.884,274.618 310.089 C 274.618 308.763,273.505 299.731,273.138 298.078 C 272.515 295.272,271.252 284.135,271.309 281.957 L 271.365 279.842 272.438 281.814 C 273.029 282.898,273.616 283.891,273.743 284.019 C 273.870 284.148,274.392 285.035,274.902 285.991 C 275.412 286.946,276.112 288.187,276.456 288.748 C 276.800 289.309,277.327 290.196,277.627 290.719 C 280.570 295.864,282.049 297.289,284.446 297.289 C 286.777 297.289,288.585 295.893,290.131 292.901 C 290.627 291.940,291.137 291.048,291.263 290.919 C 291.389 290.790,291.924 289.887,292.452 288.911 C 292.979 287.935,293.474 287.092,293.551 287.038 C 293.628 286.984,294.072 286.230,294.537 285.362 C 296.281 282.113,296.106 279.910,296.106 305.137 C 296.106 318.547,296.179 327.473,296.288 327.541 C 296.389 327.603,296.529 327.920,296.600 328.246 C 297.485 332.274,303.930 332.959,306.360 329.284 L 307.245 327.945 307.344 313.258 C 307.418 302.156,307.501 298.467,307.684 298.148 C 308.210 297.231,309.728 297.160,310.531 298.015 L 310.991 298.504 311.089 313.224 C 311.198 329.456,311.103 328.383,312.576 329.982 C 315.201 332.833,319.966 332.122,321.612 328.635 C 322.029 327.750,322.031 327.678,322.129 305.083 L 322.228 282.418 322.616 283.278 C 322.829 283.751,323.109 284.244,323.238 284.373 C 323.366 284.501,323.898 285.398,324.418 286.364 C 324.939 287.331,325.466 288.226,325.589 288.352 C 325.713 288.479,326.197 289.321,326.665 290.225 C 327.133 291.129,327.713 292.134,327.955 292.459 C 328.196 292.785,328.616 293.494,328.887 294.036 C 330.899 298.054,336.180 298.387,338.379 294.634 C 339.105 293.395,339.126 290.564,338.417 289.442 C 338.159 289.033,337.662 288.126,337.312 287.425 C 336.961 286.724,336.518 285.973,336.327 285.757 C 336.135 285.540,335.612 284.659,335.164 283.799 C 334.716 282.940,334.230 282.097,334.083 281.927 C 333.936 281.756,333.395 280.862,332.881 279.941 C 331.481 277.428,330.325 275.435,329.563 274.216 C 329.187 273.616,328.594 272.558,328.244 271.866 C 327.895 271.173,327.494 270.492,327.354 270.352 C 327.213 270.211,326.638 269.273,326.076 268.267 C 324.551 265.538,323.072 262.988,322.497 262.097 C 322.216 261.662,321.741 260.819,321.441 260.224 C 321.141 259.629,320.822 259.114,320.731 259.079 C 320.641 259.044,320.388 258.727,320.170 258.374 C 319.952 258.021,319.305 257.473,318.733 257.156 L 317.693 256.580 309.315 256.580 C 302.542 256.580,300.804 256.633,300.246 256.859 C 299.005 257.362,297.976 258.364,297.214 259.813 C 296.814 260.575,296.375 261.312,296.239 261.452 C 296.103 261.591,295.562 262.504,295.038 263.480 C 294.513 264.455,294.019 265.298,293.938 265.352 C 293.857 265.407,293.522 265.983,293.193 266.634 C 292.864 267.284,292.357 268.165,292.065 268.592 C 291.774 269.018,291.131 270.127,290.635 271.056 C 290.140 271.985,289.588 272.923,289.407 273.139 C 289.227 273.356,288.741 274.199,288.328 275.012 C 287.914 275.826,287.420 276.668,287.230 276.885 C 287.040 277.102,286.641 277.767,286.344 278.364 C 286.047 278.960,285.493 279.919,285.113 280.494 L 284.422 281.540 283.540 279.903 C 283.054 279.002,282.368 277.822,282.014 277.279 C 281.661 276.737,281.088 275.761,280.741 275.111 C 279.899 273.529,278.558 271.217,277.711 269.887 C 277.332 269.290,276.735 268.226,276.386 267.521 C 276.036 266.816,275.678 266.193,275.590 266.136 C 275.502 266.080,275.016 265.281,274.511 264.362 C 274.006 263.443,273.302 262.247,272.948 261.705 C 272.593 261.163,272.023 260.187,271.682 259.537 C 268.751 253.957,269.150 254.115,258.065 254.115 L 249.644 254.115 248.462 254.706 " stroke="none" fill="#040404" fill-rule="evenodd"></path><path id="path4" d="" stroke="none" fill="#3c3c74" fill-rule="evenodd"></path></g></svg>